<?xml version="1.0" encoding="UTF-8"?>
<!DOCTYPE svg PUBLIC "-//W3C//DTD SVG 1.1//EN" "http://www.w3.org/Graphics/SVG/1.1/DTD/svg11.dtd">
<!-- Creator: CorelDRAW -->
<svg xmlns="http://www.w3.org/2000/svg" xml:space="preserve" width="100px" height="100px" version="1.1" style="shape-rendering:geometricPrecision; text-rendering:geometricPrecision; image-rendering:optimizeQuality; fill-rule:evenodd; clip-rule:evenodd"
viewBox="0 0 6.29 6.29"
 xmlns:xlink="http://www.w3.org/1999/xlink"
 xmlns:xodm="http://www.corel.com/coreldraw/odm/2003">
 <defs>
  <style type="text/css">
   <![CDATA[
    .fil0 {fill:#1A1A1A}
    .fil1 {fill:white}
   ]]>
  </style>
 </defs>
 <g id="Слой_x0020_1">
  <metadata id="CorelCorpID_0Corel-Layer"/>
  <path class="fil0" d="M2.19 0l1.91 0c1.75,0 2.19,0.44 2.19,2.19l0 1.9c-0.02,0.48 -0.05,0.92 -0.13,1.19 -0.06,0.2 -0.11,0.31 -0.22,0.46 -0.33,0.41 -0.97,0.53 -1.48,0.53 -0.26,0 -0.73,0.01 -1.17,0.02l-0.61 0c-0.13,-0.01 -0.23,-0.01 -0.31,-0.02 -0.46,-0.05 -1.4,0.08 -1.89,-0.4 -0.14,-0.13 -0.24,-0.27 -0.31,-0.48 -0.12,-0.39 -0.16,-0.91 -0.17,-1.41l0 -0.95 0 -0.81c0.01,-0.56 0.06,-1.19 0.26,-1.54 0.16,-0.27 0.41,-0.46 0.75,-0.56 0.28,-0.07 0.71,-0.11 1.18,-0.12z"/>
  <g id="_2467990192256">
   <path class="fil1" d="M5.2 3.2c0,-0.15 -0.01,-0.29 -0.04,-0.43l-1.97 0 0 0.81 1.12 0c-0.04,0.27 -0.19,0.49 -0.41,0.64l0 0.52 0.67 0c0.4,-0.36 0.63,-0.9 0.63,-1.54z"/>
   <path class="fil1" d="M3.19 5.25c0.56,0 1.04,-0.18 1.38,-0.51l-0.67 -0.52c-0.19,0.12 -0.43,0.2 -0.71,0.2 -0.55,0 -1.01,-0.37 -1.18,-0.87l-0.7 0 0 0.55c0.35,0.68 1.05,1.15 1.88,1.15z"/>
   <path class="fil1" d="M2.01 3.55c-0.04,-0.12 -0.06,-0.26 -0.06,-0.4 0,-0.13 0.02,-0.27 0.06,-0.39l0 -0.55 -0.7 0c-0.14,0.29 -0.22,0.61 -0.22,0.94 0,0.34 0.08,0.66 0.22,0.95l0.7 -0.55z"/>
   <path class="fil1" d="M3.19 1.89c0.3,0 0.58,0.11 0.8,0.31l0.6 -0.6c-0.36,-0.34 -0.84,-0.54 -1.4,-0.54 -0.83,0 -1.53,0.47 -1.88,1.15l0.7 0.55c0.17,-0.5 0.63,-0.87 1.18,-0.87z"/>
  </g>
 </g>
</svg>
