<?xml version="1.0" encoding="UTF-8"?>
<!DOCTYPE svg PUBLIC "-//W3C//DTD SVG 1.1//EN" "http://www.w3.org/Graphics/SVG/1.1/DTD/svg11.dtd">
<!-- Creator: CorelDRAW -->
<svg xmlns="http://www.w3.org/2000/svg" xml:space="preserve" width="100px" height="100px" version="1.1" style="shape-rendering:geometricPrecision; text-rendering:geometricPrecision; image-rendering:optimizeQuality; fill-rule:evenodd; clip-rule:evenodd"
viewBox="0 0 6.15 6.15"
 xmlns:xlink="http://www.w3.org/1999/xlink"
 xmlns:xodm="http://www.corel.com/coreldraw/odm/2003">
 <defs>
  <style type="text/css">
   <![CDATA[
    .fil0 {fill:white}
    .fil1 {fill:#34A853;fill-rule:nonzero}
    .fil2 {fill:#4285F4;fill-rule:nonzero}
    .fil3 {fill:#EA4335;fill-rule:nonzero}
    .fil4 {fill:#FBBC05;fill-rule:nonzero}
   ]]>
  </style>
 </defs>
 <g id="Слой_x0020_1">
  <metadata id="CorelCorpID_0Corel-Layer"/>
  <g id="_2503612184480">
   <path class="fil0" d="M2.14 0l1.87 0c1.71,0 2.14,0.43 2.14,2.14l0 1.86c-0.02,0.46 -0.05,0.9 -0.13,1.16 -0.05,0.19 -0.1,0.31 -0.22,0.45 -0.32,0.41 -0.94,0.52 -1.44,0.52 -0.25,0 -0.71,0.01 -1.14,0.02l-0.6 0c-0.12,-0.01 -0.23,-0.01 -0.31,-0.02 -0.44,-0.05 -1.36,0.08 -1.84,-0.39 -0.14,-0.13 -0.23,-0.27 -0.3,-0.47 -0.13,-0.38 -0.16,-0.89 -0.17,-1.38l0 -0.92 0 -0.8c0.01,-0.55 0.06,-1.16 0.26,-1.5 0.15,-0.27 0.39,-0.46 0.73,-0.55 0.27,-0.07 0.69,-0.11 1.15,-0.12z"/>
   <g>
    <path class="fil1" d="M1.28 3.98l0.69 -0.53c0.16,0.49 0.61,0.84 1.15,0.84 0.57,0 1,-0.29 1.1,-0.8l-1.1 0 0 -0.79 1.91 0 0 0c0.03,0.12 0.05,0.25 0.05,0.37 0,1.31 -0.93,2.06 -1.96,2.06 -0.81,0 -1.51,-0.47 -1.84,-1.15z"/>
    <path class="fil2" d="M5.03 2.7l-1.91 0 0 0.79 1.1 0c-0.05,0.27 -0.2,0.48 -0.42,0.62l0.66 0.5c0.37,-0.35 0.62,-0.87 0.62,-1.54 0,-0.12 -0.02,-0.25 -0.05,-0.37l0 0z"/>
    <path class="fil3" d="M1.97 2.69c0.16,-0.48 0.61,-0.83 1.15,-0.83 0.29,0 0.55,0.1 0.76,0.27l0.59 -0.6c-0.36,-0.31 -0.83,-0.51 -1.35,-0.51 -0.81,0 -1.51,0.47 -1.84,1.14l0.69 0.53z"/>
    <path class="fil4" d="M1.97 3.45c-0.04,-0.12 -0.06,-0.24 -0.06,-0.38 0,-0.13 0.02,-0.26 0.06,-0.38l-0.69 -0.53c-0.14,0.28 -0.21,0.59 -0.21,0.91 0,0.33 0.07,0.64 0.21,0.91l0.69 -0.53z"/>
   </g>
  </g>
 </g>
</svg>
