<?xml version="1.0" encoding="UTF-8"?>
<!DOCTYPE svg PUBLIC "-//W3C//DTD SVG 1.1//EN" "http://www.w3.org/Graphics/SVG/1.1/DTD/svg11.dtd">
<!-- Creator: CorelDRAW -->
<svg xmlns="http://www.w3.org/2000/svg" xml:space="preserve" width="100px" height="100px" version="1.1" style="shape-rendering:geometricPrecision; text-rendering:geometricPrecision; image-rendering:optimizeQuality; fill-rule:evenodd; clip-rule:evenodd"
viewBox="0 0 11.15 11.15"
 xmlns:xlink="http://www.w3.org/1999/xlink"
 xmlns:xodm="http://www.corel.com/coreldraw/odm/2003">
 <defs>
  <style type="text/css">
   <![CDATA[
    .fil0 {fill:#1A1A1A}
    .fil1 {fill:white}
   ]]>
  </style>
 </defs>
 <g id="Слой_x0020_1">
  <metadata id="CorelCorpID_0Corel-Layer"/>
  <g id="_2467992601104">
   <path class="fil0" d="M3.88 0l3.39 0c3.1,0 3.88,0.78 3.88,3.88l0 3.37c-0.02,0.85 -0.08,1.63 -0.22,2.11 -0.1,0.35 -0.19,0.56 -0.4,0.82 -0.58,0.74 -1.72,0.94 -2.62,0.94 -0.46,0 -1.29,0.02 -2.07,0.03l-1.09 0c-0.22,0 -0.41,-0.01 -0.55,-0.03 -0.81,-0.09 -2.47,0.14 -3.35,-0.7 -0.25,-0.24 -0.42,-0.49 -0.54,-0.86 -0.23,-0.68 -0.29,-1.6 -0.31,-2.5l0 -1.68 0 -1.44c0.02,-1 0.11,-2.11 0.46,-2.73 0.29,-0.49 0.73,-0.83 1.33,-0.99 0.49,-0.13 1.26,-0.19 2.09,-0.22z"/>
   <g>
    <rect class="fil1" x="2.21" y="2.22" width="3.22" height="3.21"/>
    <rect class="fil1" x="5.73" y="2.22" width="3.22" height="3.21"/>
    <rect class="fil1" x="5.73" y="5.73" width="3.22" height="3.21"/>
    <rect class="fil1" x="2.21" y="5.73" width="3.22" height="3.21"/>
   </g>
  </g>
 </g>
</svg>
