<?xml version="1.0" encoding="UTF-8"?>
<!DOCTYPE svg PUBLIC "-//W3C//DTD SVG 1.1//EN" "http://www.w3.org/Graphics/SVG/1.1/DTD/svg11.dtd">
<!-- Creator: CorelDRAW -->
<svg xmlns="http://www.w3.org/2000/svg" xml:space="preserve" width="100px" height="100px" version="1.1" style="shape-rendering:geometricPrecision; text-rendering:geometricPrecision; image-rendering:optimizeQuality; fill-rule:evenodd; clip-rule:evenodd"
viewBox="0 0 6.18 6.18"
 xmlns:xlink="http://www.w3.org/1999/xlink"
 xmlns:xodm="http://www.corel.com/coreldraw/odm/2003">
 <defs>
  <style type="text/css">
   <![CDATA[
    .fil4 {fill:#00A4EF}
    .fil2 {fill:#7FBA00}
    .fil1 {fill:#F25022}
    .fil3 {fill:#FFB900}
    .fil0 {fill:white}
   ]]>
  </style>
 </defs>
 <g id="Слой_x0020_1">
  <metadata id="CorelCorpID_0Corel-Layer"/>
  <g id="_2504087413056">
   <path class="fil0" d="M2.15 0l1.88 0c1.72,0 2.15,0.43 2.15,2.15l0 1.87c-0.01,0.47 -0.05,0.9 -0.12,1.17 -0.06,0.19 -0.11,0.31 -0.22,0.45 -0.32,0.41 -0.96,0.52 -1.46,0.52 -0.25,0 -0.71,0.02 -1.14,0.02l-0.61 0c-0.12,0 -0.22,-0.01 -0.3,-0.02 -0.45,-0.05 -1.37,0.08 -1.86,-0.39 -0.14,-0.13 -0.23,-0.26 -0.3,-0.47 -0.13,-0.38 -0.16,-0.89 -0.17,-1.39l0 -0.93 0 -0.79c0.01,-0.56 0.06,-1.18 0.26,-1.52 0.16,-0.27 0.4,-0.46 0.73,-0.55 0.27,-0.07 0.7,-0.11 1.16,-0.12z"/>
   <g>
    <rect class="fil1" x="1.22" y="1.23" width="1.78" height="1.78"/>
    <rect class="fil2" x="3.17" y="1.23" width="1.78" height="1.78"/>
    <rect class="fil3" x="3.17" y="3.18" width="1.78" height="1.78"/>
    <rect class="fil4" x="1.22" y="3.18" width="1.78" height="1.78"/>
   </g>
  </g>
 </g>
</svg>
