<?xml version="1.0" encoding="UTF-8"?>
<!DOCTYPE svg PUBLIC "-//W3C//DTD SVG 1.1//EN" "http://www.w3.org/Graphics/SVG/1.1/DTD/svg11.dtd">
<!-- Creator: CorelDRAW -->
<svg xmlns="http://www.w3.org/2000/svg" xml:space="preserve" width="100px" height="100px" version="1.1" style="shape-rendering:geometricPrecision; text-rendering:geometricPrecision; image-rendering:optimizeQuality; fill-rule:evenodd; clip-rule:evenodd"
viewBox="0 0 7.36 7.36"
 xmlns:xlink="http://www.w3.org/1999/xlink"
 xmlns:xodm="http://www.corel.com/coreldraw/odm/2003">
 <defs>
  <style type="text/css">
   <![CDATA[
    .fil0 {fill:#1A1A1A}
    .fil1 {fill:white}
   ]]>
  </style>
 </defs>
 <g id="Слой_x0020_1">
  <metadata id="CorelCorpID_0Corel-Layer"/>
  <g id="_2467992629136">
   <path class="fil0" d="M2.56 0l2.24 0c2.04,0 2.56,0.51 2.56,2.56l0 2.22c-0.02,0.56 -0.06,1.08 -0.15,1.39 -0.07,0.24 -0.13,0.37 -0.26,0.54 -0.39,0.49 -1.14,0.63 -1.73,0.62 -0.3,0 -0.85,0.02 -1.37,0.03l-0.72 0c-0.14,-0.01 -0.27,-0.01 -0.36,-0.02 -0.53,-0.06 -1.63,0.09 -2.21,-0.47 -0.17,-0.16 -0.28,-0.32 -0.36,-0.56 -0.15,-0.45 -0.19,-1.06 -0.2,-1.66l0 -1.1 0 -0.95c0.01,-0.66 0.07,-1.4 0.31,-1.8 0.18,-0.32 0.47,-0.55 0.87,-0.65 0.32,-0.09 0.83,-0.13 1.38,-0.15z"/>
   <path class="fil1" d="M4.68 2.86c0.03,0.14 -0.24,0.32 -0.4,0.48 -0.19,0.21 -0.66,0.62 -0.77,0.76 -0.14,0.16 -0.11,0.25 0.04,0.36l1.09 0.74c0.39,0.27 0.55,0.1 0.63,-0.33 0.06,-0.34 0.12,-0.69 0.18,-1.04 0.06,-0.35 0.12,-0.7 0.16,-1.06 0.05,-0.37 0.23,-0.87 -0.33,-0.71 -0.48,0.14 -3.04,1.25 -3.42,1.43 -0.5,0.25 0.16,0.38 0.41,0.46 0.47,0.14 0.59,0.06 0.91,-0.16l1.1 -0.73c0.09,-0.07 0.27,-0.21 0.4,-0.2z"/>
  </g>
 </g>
</svg>
