<?xml version="1.0" encoding="UTF-8"?>
<!DOCTYPE svg PUBLIC "-//W3C//DTD SVG 1.1//EN" "http://www.w3.org/Graphics/SVG/1.1/DTD/svg11.dtd">
<!-- Creator: CorelDRAW -->
<svg xmlns="http://www.w3.org/2000/svg" xml:space="preserve" width="100px" height="100px" version="1.1" style="shape-rendering:geometricPrecision; text-rendering:geometricPrecision; image-rendering:optimizeQuality; fill-rule:evenodd; clip-rule:evenodd"
viewBox="0 0 7.4 7.4"
 xmlns:xlink="http://www.w3.org/1999/xlink"
 xmlns:xodm="http://www.corel.com/coreldraw/odm/2003">
 <defs>
  <style type="text/css">
   <![CDATA[
    .fil1 {fill:#28A7E8}
    .fil0 {fill:white}
   ]]>
  </style>
 </defs>
 <g id="Слой_x0020_1">
  <metadata id="CorelCorpID_0Corel-Layer"/>
  <path class="fil0" d="M2.57 0l2.25 0c2.06,0 2.58,0.52 2.58,2.58l0 2.23c-0.02,0.56 -0.06,1.08 -0.15,1.4 -0.07,0.23 -0.13,0.37 -0.27,0.54 -0.38,0.49 -1.14,0.63 -1.73,0.62 -0.31,0 -0.86,0.02 -1.38,0.03l-0.72 0c-0.15,-0.01 -0.27,-0.01 -0.37,-0.02 -0.53,-0.06 -1.63,0.09 -2.22,-0.47 -0.16,-0.16 -0.28,-0.32 -0.36,-0.57 -0.15,-0.45 -0.19,-1.06 -0.2,-1.66l0 -1.11 0 -0.95c0.01,-0.67 0.07,-1.41 0.31,-1.82 0.19,-0.32 0.48,-0.55 0.88,-0.65 0.32,-0.09 0.83,-0.13 1.38,-0.15z"/>
  <path class="fil1" d="M4.7 2.88c0.03,0.14 -0.24,0.32 -0.4,0.48 -0.19,0.2 -0.66,0.62 -0.78,0.76 -0.13,0.16 -0.1,0.26 0.05,0.36l1.1 0.75c0.39,0.26 0.55,0.1 0.63,-0.33 0.06,-0.35 0.12,-0.7 0.18,-1.05 0.06,-0.35 0.12,-0.71 0.16,-1.06 0.05,-0.38 0.23,-0.88 -0.33,-0.72 -0.48,0.14 -3.06,1.25 -3.44,1.44 -0.5,0.24 0.16,0.38 0.42,0.46 0.47,0.14 0.58,0.06 0.9,-0.16l1.11 -0.74c0.1,-0.06 0.27,-0.21 0.4,-0.19z"/>
 </g>
</svg>
