<?xml version="1.0" encoding="UTF-8"?>
<!DOCTYPE svg PUBLIC "-//W3C//DTD SVG 1.1//EN" "http://www.w3.org/Graphics/SVG/1.1/DTD/svg11.dtd">
<!-- Creator: CorelDRAW -->
<svg xmlns="http://www.w3.org/2000/svg" xml:space="preserve" width="100px" height="100px" version="1.1" style="shape-rendering:geometricPrecision; text-rendering:geometricPrecision; image-rendering:optimizeQuality; fill-rule:evenodd; clip-rule:evenodd"
viewBox="0 0 9.28 9.28"
 xmlns:xlink="http://www.w3.org/1999/xlink"
 xmlns:xodm="http://www.corel.com/coreldraw/odm/2003">
 <defs>
  <style type="text/css">
   <![CDATA[
    .fil1 {fill:#0077FF}
    .fil0 {fill:white}
   ]]>
  </style>
 </defs>
 <g id="Слой_x0020_1">
  <metadata id="CorelCorpID_0Corel-Layer"/>
  <path class="fil0" d="M3.23 0l2.82 0c2.58,0 3.23,0.65 3.23,3.23l0 2.8c-0.02,0.71 -0.07,1.36 -0.19,1.76 -0.08,0.29 -0.16,0.47 -0.32,0.68 -0.49,0.62 -1.44,0.79 -2.19,0.78 -0.38,0 -1.07,0.02 -1.72,0.03l-0.91 0c-0.18,0 -0.34,-0.01 -0.46,-0.02 -0.67,-0.08 -2.05,0.11 -2.79,-0.59 -0.2,-0.2 -0.34,-0.4 -0.44,-0.71 -0.19,-0.57 -0.25,-1.34 -0.26,-2.09l0 -1.39 0 -1.2c0.02,-0.83 0.09,-1.76 0.39,-2.27 0.23,-0.41 0.6,-0.69 1.1,-0.83 0.41,-0.11 1.05,-0.16 1.74,-0.18z"/>
  <path class="fil1" d="M5.03 6.56l0 -1.37c0.59,0.07 1.07,0.38 1.37,0.87 0.38,0.64 -0.09,0.5 1.33,0.5 -0.2,-0.78 -0.68,-1.34 -1.29,-1.76 -0.09,-0.07 -0.18,-0.1 -0.27,-0.17 0.01,-0.01 0.02,-0.02 0.04,-0.04 0.34,-0.28 0.44,-0.26 0.79,-0.76 0.22,-0.29 0.4,-0.67 0.49,-1.12l-0.99 0c-0.21,0.69 -0.74,1.39 -1.47,1.52l0 -1.52 -0.99 0 0 2.66c-1.13,-0.31 -1.37,-1.64 -1.44,-2.66l-1.05 0c0.03,1.17 0.3,2.07 0.88,2.79 0.44,0.55 1.45,1.17 2.6,1.06z"/>
 </g>
</svg>
