<?xml version="1.0" encoding="UTF-8"?>
<!DOCTYPE svg PUBLIC "-//W3C//DTD SVG 1.1//EN" "http://www.w3.org/Graphics/SVG/1.1/DTD/svg11.dtd">
<!-- Creator: CorelDRAW -->
<svg xmlns="http://www.w3.org/2000/svg" xml:space="preserve" width="100px" height="100px" version="1.1" style="shape-rendering:geometricPrecision; text-rendering:geometricPrecision; image-rendering:optimizeQuality; fill-rule:evenodd; clip-rule:evenodd"
viewBox="0 0 8.87 8.87"
 xmlns:xlink="http://www.w3.org/1999/xlink"
 xmlns:xodm="http://www.corel.com/coreldraw/odm/2003">
 <defs>
  <style type="text/css">
   <![CDATA[
    .fil0 {fill:#1A1A1A}
    .fil1 {fill:white}
   ]]>
  </style>
 </defs>
 <g id="Слой_x0020_1">
  <metadata id="CorelCorpID_0Corel-Layer"/>
  <g id="_2467991586640">
   <path class="fil0" d="M3.08 0l2.7 0c2.47,0 3.09,0.62 3.09,3.09l0 2.67c-0.02,0.68 -0.07,1.3 -0.18,1.68 -0.08,0.28 -0.16,0.45 -0.32,0.65 -0.46,0.59 -1.36,0.75 -2.08,0.75 -0.37,0 -1.02,0.02 -1.65,0.03l-0.86 0c-0.18,-0.01 -0.33,-0.02 -0.44,-0.03 -0.64,-0.07 -1.97,0.11 -2.67,-0.56 -0.2,-0.19 -0.33,-0.38 -0.43,-0.68 -0.18,-0.54 -0.23,-1.28 -0.24,-1.99l0 -1.33 0 -1.14c0.02,-0.8 0.09,-1.69 0.37,-2.18 0.23,-0.39 0.57,-0.65 1.05,-0.78 0.39,-0.11 1,-0.16 1.66,-0.18z"/>
   <path class="fil1" d="M4.81 6.26l0 -1.3c0.56,0.06 1.02,0.36 1.3,0.83 0.37,0.61 -0.08,0.48 1.28,0.48 -0.2,-0.75 -0.66,-1.28 -1.23,-1.68 -0.1,-0.07 -0.18,-0.1 -0.27,-0.17 0.02,-0.01 0.02,-0.02 0.05,-0.04 0.31,-0.26 0.41,-0.25 0.75,-0.72 0.2,-0.28 0.38,-0.64 0.47,-1.07l-0.95 0c-0.2,0.66 -0.71,1.33 -1.4,1.45l0 -1.45 -0.95 0 0 2.54c-1.08,-0.3 -1.31,-1.57 -1.37,-2.54l-1.01 0c0.03,1.12 0.29,1.97 0.84,2.66 0.42,0.53 1.39,1.12 2.49,1.01z"/>
  </g>
 </g>
</svg>
