<svg xmlns="http://www.w3.org/2000/svg" viewBox="0 0 24 24" fill="currentColor">
  <path d="M15.07 2H8.93C3.33 2 2 3.33 2 8.93v6.14C2 20.67 3.33 22 8.93 22h6.14c5.6 0 6.93-1.33 6.93-6.93V8.93C22 3.33 20.67 2 15.07 2zM17.5 15.5h-1.75c-.25 0-.5-.1-.68-.28l-1.65-1.65c-.1-.1-.2-.15-.33-.15-.13 0-.23.05-.33.15l-1.65 1.65c-.18.18-.43.28-.68.28H9.5c-.3 0-.5-.2-.5-.5V9c0-.3.2-.5.5-.5h1.75c.25 0 .5.1.68.28l1.65 1.65c.1.1.2.15.33.15.13 0 .23-.05.33-.15l1.65-1.65c.18-.18.43-.28.68-.28h1.75c.3 0 .5.2.5.5v6c0 .3-.2.5-.5.5z"/>
</svg> 