<svg width="100" height="100" viewBox="0 0 100 100" fill="none" xmlns="http://www.w3.org/2000/svg">
<path d="M0 50C0 22.3858 22.3858 0 50 0C77.6142 0 100 22.3858 100 50C100 77.6142 77.6142 100 50 100C22.3858 100 0 77.6142 0 50Z" fill="#134487" fill-opacity="0.1"/>
<path d="M45.45 62.349C45.408 62.139 45.387 61.908 45.387 61.656C45.387 61.404 45.387 61.173 45.387 60.963C45.387 59.199 45.639 57.645 46.143 56.301C46.689 54.957 47.34 53.739 48.096 52.647C48.894 51.513 49.734 50.463 50.616 49.497C51.54 48.531 52.38 47.565 53.136 46.599C53.934 45.591 54.585 44.541 55.089 43.449C55.635 42.315 55.908 41.034 55.908 39.606C55.908 37.674 55.341 36.099 54.207 34.881C53.115 33.663 51.267 33.054 48.663 33.054C47.151 33.054 45.618 33.327 44.064 33.873C42.51 34.377 41.166 34.986 40.032 35.7L38.331 31.794C39.927 30.828 41.607 30.072 43.371 29.526C45.135 28.938 47.319 28.644 49.923 28.644C51.771 28.644 53.388 28.917 54.774 29.463C56.202 29.967 57.378 30.681 58.302 31.605C59.268 32.529 59.982 33.621 60.444 34.881C60.906 36.141 61.137 37.485 61.137 38.913C61.137 40.803 60.843 42.462 60.255 43.89C59.709 45.276 58.995 46.557 58.113 47.733C57.273 48.867 56.349 49.938 55.341 50.946C54.375 51.954 53.451 53.025 52.569 54.159C51.729 55.251 51.015 56.448 50.427 57.75C49.881 59.052 49.608 60.585 49.608 62.349H45.45ZM44.19 70.602C44.19 69.468 44.505 68.586 45.135 67.956C45.807 67.284 46.689 66.948 47.781 66.948C48.915 66.948 49.818 67.284 50.49 67.956C51.162 68.586 51.498 69.468 51.498 70.602C51.498 71.694 51.162 72.576 50.49 73.248C49.818 73.92 48.915 74.256 47.781 74.256C46.689 74.256 45.807 73.92 45.135 73.248C44.505 72.576 44.19 71.694 44.19 70.602Z" fill="#8A9CAE"/>
</svg>
