<svg width="25" height="24" viewBox="0 0 25 24" fill="none" xmlns="http://www.w3.org/2000/svg">
<path d="M0.5 11.2C0.5 5.92027 0.5 3.2804 2.1402 1.6402C3.7804 0 6.42027 0 11.7 0H13.3C18.5797 0 21.2196 0 22.8598 1.6402C24.5 3.2804 24.5 5.92027 24.5 11.2V12.8C24.5 18.0797 24.5 20.7196 22.8598 22.3598C21.2196 24 18.5797 24 13.3 24H11.7C6.42027 24 3.7804 24 2.1402 22.3598C0.5 20.7196 0.5 18.0797 0.5 12.8V11.2Z" fill="white" fill-opacity="0.25"/>
<path d="M11.6053 12.355C11.6053 12.4925 11.5741 12.5972 11.5116 12.6691C11.4491 12.7378 11.3772 12.7941 11.2959 12.8378C11.2147 12.8816 11.1428 12.9316 11.0803 12.9878C11.0178 13.0409 10.9866 13.1206 10.9866 13.2269V14.9425C10.9866 15.2925 10.8147 15.4675 10.4709 15.4675C10.3428 15.4675 10.2303 15.4284 10.1334 15.3503C10.0397 15.2753 9.94907 15.2003 9.86157 15.1253C9.7772 15.0472 9.68657 15.0081 9.5897 15.0081C9.49907 15.0081 9.40063 15.0316 9.29438 15.0784C9.19126 15.1253 9.09751 15.1675 9.01313 15.205C8.83188 15.2894 8.64907 15.3534 8.4647 15.3972C8.28032 15.4409 8.08657 15.4628 7.88345 15.4628C7.18032 15.4628 6.58345 15.3206 6.09282 15.0362C5.6022 14.7487 5.22876 14.3487 4.97251 13.8362C4.71626 13.3206 4.58813 12.7191 4.58813 12.0316C4.58813 11.5441 4.67876 11.0925 4.86001 10.6769C5.04126 10.2581 5.29282 9.89406 5.6147 9.58469C5.93657 9.27531 6.30845 9.03469 6.73032 8.86281C7.15532 8.68781 7.60845 8.60031 8.0897 8.60031C8.27407 8.60031 8.45688 8.61281 8.63813 8.63781C8.81938 8.65969 8.99751 8.69719 9.17251 8.75031C9.26313 8.77531 9.35063 8.80031 9.43501 8.82531C9.52251 8.85031 9.61313 8.86281 9.70688 8.86281C9.78813 8.86281 9.86157 8.8425 9.9272 8.80187C9.99595 8.75812 10.0631 8.71594 10.1288 8.67531C10.1975 8.63469 10.2725 8.61437 10.3538 8.61437C10.5131 8.61437 10.6163 8.66437 10.6631 8.76437C10.7131 8.86437 10.7569 8.97687 10.7944 9.10187C10.8225 9.1925 10.86 9.30969 10.9069 9.45344C10.9569 9.59719 11.0069 9.75031 11.0569 9.91281C11.11 10.0722 11.1538 10.2222 11.1881 10.3628C11.2225 10.5034 11.2397 10.6144 11.2397 10.6956C11.2397 10.8456 11.1803 10.9581 11.0616 11.0331C10.9428 11.105 10.8163 11.1409 10.6819 11.1409C10.5444 11.1409 10.4413 11.1066 10.3725 11.0378C10.3038 10.9691 10.235 10.8816 10.1663 10.7753C10.01 10.5378 9.85845 10.3284 9.71157 10.1472C9.5647 9.96281 9.39126 9.81906 9.19126 9.71594C8.99438 9.61281 8.7397 9.56125 8.4272 9.56125C8.1272 9.56125 7.87876 9.62844 7.68188 9.76281C7.48501 9.89406 7.32876 10.0691 7.21313 10.2878C7.10063 10.5034 7.01938 10.7394 6.96938 10.9956C6.92251 11.2487 6.89907 11.4987 6.89907 11.7456C6.89907 11.9269 6.91001 12.1112 6.93188 12.2987C6.95688 12.4831 6.99438 12.6628 7.04438 12.8378C7.11313 13.0722 7.21626 13.2987 7.35376 13.5175C7.49438 13.7331 7.66782 13.9097 7.87407 14.0472C8.08032 14.1847 8.31626 14.2534 8.58188 14.2534C8.69438 14.2534 8.78345 14.2347 8.84907 14.1972C8.9147 14.1566 8.94751 14.0737 8.94751 13.9487V13.2269C8.94751 13.1456 8.93188 13.0909 8.90063 13.0628C8.86938 13.0347 8.82251 13.0019 8.76001 12.9644C8.67876 12.9144 8.5897 12.8659 8.49282 12.8191C8.39907 12.7691 8.31938 12.7097 8.25376 12.6409C8.18813 12.5691 8.15532 12.4753 8.15532 12.3597C8.15532 12.1847 8.21001 12.0612 8.31938 11.9894C8.42876 11.9144 8.56313 11.8769 8.72251 11.8769H11.0428C11.2022 11.8769 11.335 11.9128 11.4413 11.9847C11.5506 12.0566 11.6053 12.18 11.6053 12.355Z" fill="#041A41"/>
<path d="M14.3168 14.7503C14.3168 14.9284 14.2652 15.0612 14.1621 15.1487C14.0621 15.2362 13.9261 15.28 13.7543 15.28H12.7043C12.5355 15.28 12.3996 15.2394 12.2964 15.1581C12.1964 15.0769 12.1464 14.9472 12.1464 14.7691C12.1464 14.6191 12.1746 14.5081 12.2308 14.4362C12.2902 14.3612 12.3589 14.3003 12.4371 14.2534C12.5183 14.2034 12.5902 14.1441 12.6527 14.0753C12.7152 14.0034 12.7511 13.8956 12.7605 13.7519L12.9949 10.3206V10.2784C12.9949 10.1597 12.9636 10.0706 12.9011 10.0112C12.8386 9.94875 12.7668 9.8925 12.6855 9.8425C12.6043 9.7925 12.5324 9.72844 12.4699 9.65031C12.4074 9.56906 12.3761 9.45344 12.3761 9.30344C12.3761 9.12844 12.4277 9.00031 12.5308 8.91906C12.6339 8.83469 12.7683 8.7925 12.9339 8.7925H14.598C14.9105 8.7925 15.1464 8.88312 15.3058 9.06437C15.4652 9.24562 15.5902 9.47062 15.6808 9.73937L16.4449 11.9847L17.1902 9.73937C17.2808 9.46125 17.4058 9.23469 17.5652 9.05969C17.7246 8.88156 17.9636 8.7925 18.2824 8.7925H19.9746C20.1433 8.7925 20.2793 8.83312 20.3824 8.91437C20.4855 8.99562 20.5371 9.12531 20.5371 9.30344C20.5371 9.45031 20.5058 9.56594 20.4433 9.65031C20.3808 9.73156 20.3074 9.79875 20.223 9.85187C20.1418 9.905 20.0699 9.96125 20.0074 10.0206C19.9449 10.0769 19.9136 10.155 19.9136 10.255V10.2784L20.1105 13.7472C20.1199 13.9003 20.1527 14.0112 20.2089 14.08C20.2683 14.1456 20.3339 14.1987 20.4058 14.2394C20.4777 14.28 20.5402 14.3347 20.5933 14.4034C20.6496 14.4691 20.6777 14.58 20.6777 14.7362C20.6777 14.9112 20.6277 15.0456 20.5277 15.1394C20.4308 15.2331 20.2949 15.28 20.1199 15.28H17.7761C17.6074 15.28 17.4714 15.2394 17.3683 15.1581C17.2683 15.0769 17.2183 14.9472 17.2183 14.7691C17.2183 14.6284 17.2496 14.5175 17.3121 14.4362C17.3746 14.3519 17.4464 14.2831 17.5277 14.23C17.6121 14.1737 17.6855 14.1175 17.748 14.0612C17.8105 14.005 17.8418 13.93 17.8418 13.8362V13.8081L17.6824 11.5769L16.7261 14.3331C16.6793 14.4706 16.6214 14.605 16.5527 14.7362C16.4871 14.8644 16.4011 14.9706 16.2949 15.055C16.1886 15.1362 16.0511 15.1769 15.8824 15.1769C15.6668 15.1769 15.5074 15.1394 15.4043 15.0644C15.3011 14.9894 15.1996 14.8612 15.0996 14.68C15.0277 14.5519 14.9683 14.4191 14.9214 14.2816L13.9464 11.5253L13.7964 13.7519V13.7894C13.7964 13.8956 13.823 13.9831 13.8761 14.0519C13.9293 14.1175 13.9886 14.1784 14.0543 14.2347C14.123 14.2909 14.1839 14.3581 14.2371 14.4362C14.2902 14.5144 14.3168 14.6191 14.3168 14.7503Z" fill="#041A41"/>
</svg>
