<svg width="78" height="34" viewBox="0 0 78 34" fill="none" xmlns="http://www.w3.org/2000/svg">
<path d="M27 11.2C27 5.92027 27 3.2804 28.6402 1.6402C30.2804 0 32.9203 0 38.2 0H39.8C45.0797 0 47.7196 0 49.3598 1.6402C51 3.2804 51 5.92027 51 11.2V12.8C51 18.0797 51 20.7196 49.3598 22.3598C47.7196 24 45.0797 24 39.8 24H38.2C32.9203 24 30.2804 24 28.6402 22.3598C27 20.7196 27 18.0797 27 12.8V11.2Z" fill="#F4D710"/>
<path d="M38.1053 12.355C38.1053 12.4925 38.0741 12.5972 38.0116 12.6691C37.9491 12.7378 37.8772 12.7941 37.7959 12.8378C37.7147 12.8816 37.6428 12.9316 37.5803 12.9878C37.5178 13.0409 37.4866 13.1206 37.4866 13.2269V14.9425C37.4866 15.2925 37.3147 15.4675 36.9709 15.4675C36.8428 15.4675 36.7303 15.4284 36.6334 15.3503C36.5397 15.2753 36.4491 15.2003 36.3616 15.1253C36.2772 15.0472 36.1866 15.0081 36.0897 15.0081C35.9991 15.0081 35.9006 15.0316 35.7944 15.0784C35.6913 15.1253 35.5975 15.1675 35.5131 15.205C35.3319 15.2894 35.1491 15.3534 34.9647 15.3972C34.7803 15.4409 34.5866 15.4628 34.3834 15.4628C33.6803 15.4628 33.0834 15.3206 32.5928 15.0362C32.1022 14.7487 31.7288 14.3487 31.4725 13.8362C31.2163 13.3206 31.0881 12.7191 31.0881 12.0316C31.0881 11.5441 31.1788 11.0925 31.36 10.6769C31.5413 10.2581 31.7928 9.89406 32.1147 9.58469C32.4366 9.27531 32.8084 9.03469 33.2303 8.86281C33.6553 8.68781 34.1084 8.60031 34.5897 8.60031C34.7741 8.60031 34.9569 8.61281 35.1381 8.63781C35.3194 8.65969 35.4975 8.69719 35.6725 8.75031C35.7631 8.77531 35.8506 8.80031 35.935 8.82531C36.0225 8.85031 36.1131 8.86281 36.2069 8.86281C36.2881 8.86281 36.3616 8.8425 36.4272 8.80187C36.4959 8.75812 36.5631 8.71594 36.6288 8.67531C36.6975 8.63469 36.7725 8.61437 36.8538 8.61437C37.0131 8.61437 37.1163 8.66437 37.1631 8.76437C37.2131 8.86437 37.2569 8.97687 37.2944 9.10187C37.3225 9.1925 37.36 9.30969 37.4069 9.45344C37.4569 9.59719 37.5069 9.75031 37.5569 9.91281C37.61 10.0722 37.6538 10.2222 37.6881 10.3628C37.7225 10.5034 37.7397 10.6144 37.7397 10.6956C37.7397 10.8456 37.6803 10.9581 37.5616 11.0331C37.4428 11.105 37.3163 11.1409 37.1819 11.1409C37.0444 11.1409 36.9413 11.1066 36.8725 11.0378C36.8038 10.9691 36.735 10.8816 36.6663 10.7753C36.51 10.5378 36.3584 10.3284 36.2116 10.1472C36.0647 9.96281 35.8913 9.81906 35.6913 9.71594C35.4944 9.61281 35.2397 9.56125 34.9272 9.56125C34.6272 9.56125 34.3788 9.62844 34.1819 9.76281C33.985 9.89406 33.8288 10.0691 33.7131 10.2878C33.6006 10.5034 33.5194 10.7394 33.4694 10.9956C33.4225 11.2487 33.3991 11.4987 33.3991 11.7456C33.3991 11.9269 33.41 12.1112 33.4319 12.2987C33.4569 12.4831 33.4944 12.6628 33.5444 12.8378C33.6131 13.0722 33.7163 13.2987 33.8538 13.5175C33.9944 13.7331 34.1678 13.9097 34.3741 14.0472C34.5803 14.1847 34.8163 14.2534 35.0819 14.2534C35.1944 14.2534 35.2834 14.2347 35.3491 14.1972C35.4147 14.1566 35.4475 14.0737 35.4475 13.9487V13.2269C35.4475 13.1456 35.4319 13.0909 35.4006 13.0628C35.3694 13.0347 35.3225 13.0019 35.26 12.9644C35.1788 12.9144 35.0897 12.8659 34.9928 12.8191C34.8991 12.7691 34.8194 12.7097 34.7538 12.6409C34.6881 12.5691 34.6553 12.4753 34.6553 12.3597C34.6553 12.1847 34.71 12.0612 34.8194 11.9894C34.9288 11.9144 35.0631 11.8769 35.2225 11.8769H37.5428C37.7022 11.8769 37.835 11.9128 37.9413 11.9847C38.0506 12.0566 38.1053 12.18 38.1053 12.355Z" fill="black"/>
<path d="M40.8168 14.7503C40.8168 14.9284 40.7652 15.0612 40.6621 15.1487C40.5621 15.2362 40.4261 15.28 40.2543 15.28H39.2043C39.0355 15.28 38.8996 15.2394 38.7964 15.1581C38.6964 15.0769 38.6464 14.9472 38.6464 14.7691C38.6464 14.6191 38.6746 14.5081 38.7308 14.4362C38.7902 14.3612 38.8589 14.3003 38.9371 14.2534C39.0183 14.2034 39.0902 14.1441 39.1527 14.0753C39.2152 14.0034 39.2511 13.8956 39.2605 13.7519L39.4949 10.3206V10.2784C39.4949 10.1597 39.4636 10.0706 39.4011 10.0112C39.3386 9.94875 39.2668 9.8925 39.1855 9.8425C39.1043 9.7925 39.0324 9.72844 38.9699 9.65031C38.9074 9.56906 38.8761 9.45344 38.8761 9.30344C38.8761 9.12844 38.9277 9.00031 39.0308 8.91906C39.1339 8.83469 39.2683 8.7925 39.4339 8.7925H41.098C41.4105 8.7925 41.6464 8.88312 41.8058 9.06437C41.9652 9.24562 42.0902 9.47062 42.1808 9.73937L42.9449 11.9847L43.6902 9.73937C43.7808 9.46125 43.9058 9.23469 44.0652 9.05969C44.2246 8.88156 44.4636 8.7925 44.7824 8.7925H46.4746C46.6433 8.7925 46.7793 8.83312 46.8824 8.91437C46.9855 8.99562 47.0371 9.12531 47.0371 9.30344C47.0371 9.45031 47.0058 9.56594 46.9433 9.65031C46.8808 9.73156 46.8074 9.79875 46.723 9.85187C46.6418 9.905 46.5699 9.96125 46.5074 10.0206C46.4449 10.0769 46.4136 10.155 46.4136 10.255V10.2784L46.6105 13.7472C46.6199 13.9003 46.6527 14.0112 46.7089 14.08C46.7683 14.1456 46.8339 14.1987 46.9058 14.2394C46.9777 14.28 47.0402 14.3347 47.0933 14.4034C47.1496 14.4691 47.1777 14.58 47.1777 14.7362C47.1777 14.9112 47.1277 15.0456 47.0277 15.1394C46.9308 15.2331 46.7949 15.28 46.6199 15.28H44.2761C44.1074 15.28 43.9714 15.2394 43.8683 15.1581C43.7683 15.0769 43.7183 14.9472 43.7183 14.7691C43.7183 14.6284 43.7496 14.5175 43.8121 14.4362C43.8746 14.3519 43.9464 14.2831 44.0277 14.23C44.1121 14.1737 44.1855 14.1175 44.248 14.0612C44.3105 14.005 44.3418 13.93 44.3418 13.8362V13.8081L44.1824 11.5769L43.2261 14.3331C43.1793 14.4706 43.1214 14.605 43.0527 14.7362C42.9871 14.8644 42.9011 14.9706 42.7949 15.055C42.6886 15.1362 42.5511 15.1769 42.3824 15.1769C42.1668 15.1769 42.0074 15.1394 41.9043 15.0644C41.8011 14.9894 41.6996 14.8612 41.5996 14.68C41.5277 14.5519 41.4683 14.4191 41.4214 14.2816L40.4464 11.5253L40.2964 13.7519V13.7894C40.2964 13.8956 40.323 13.9831 40.3761 14.0519C40.4293 14.1175 40.4886 14.1784 40.5543 14.2347C40.623 14.2909 40.6839 14.3581 40.7371 14.4362C40.7902 14.5144 40.8168 14.6191 40.8168 14.7503Z" fill="black"/>
</svg>
