<?xml version="1.0"?>
<svg width="25" height="24" xmlns="http://www.w3.org/2000/svg" xmlns:svg="http://www.w3.org/2000/svg">
 <g class="layer">
  <title>Layer 1</title>
  <path d="m0.5,11.2c0,-5.28 0,-7.92 1.64,-9.56c1.64,-1.64 4.28,-1.64 9.56,-1.64l1.6,0c5.28,0 7.92,0 9.56,1.64c1.64,1.64 1.64,4.28 1.64,9.56l0,1.6c0,5.28 0,7.92 -1.64,9.56c-1.64,1.64 -4.28,1.64 -9.56,1.64l-1.6,0c-5.28,0 -7.92,0 -9.56,-1.64c-1.64,-1.64 -1.64,-4.28 -1.64,-9.56l0,-1.6z" fill="#f4d710" id="svg_1"/>
  <path d="m11.61,12.36c0,0.13 -0.04,0.24 -0.1,0.31c-0.06,0.07 -0.13,0.12 -0.21,0.17c-0.09,0.04 -0.16,0.09 -0.22,0.15c-0.06,0.05 -0.09,0.13 -0.09,0.24l0,1.71c0,0.35 -0.18,0.53 -0.52,0.53c-0.13,0 -0.24,-0.04 -0.34,-0.12c-0.09,-0.07 -0.18,-0.15 -0.27,-0.22c-0.08,-0.08 -0.17,-0.12 -0.27,-0.12c-0.09,0 -0.19,0.02 -0.3,0.07c-0.1,0.05 -0.19,0.09 -0.28,0.13c-0.18,0.08 -0.36,0.14 -0.55,0.19c-0.18,0.04 -0.37,0.06 -0.58,0.06c-0.7,0 -1.3,-0.14 -1.79,-0.42c-0.49,-0.29 -0.86,-0.69 -1.12,-1.2c-0.25,-0.52 -0.38,-1.12 -0.38,-1.81c0,-0.49 0.09,-0.94 0.27,-1.35c0.18,-0.42 0.43,-0.79 0.75,-1.1c0.33,-0.3 0.7,-0.55 1.12,-0.72c0.43,-0.17 0.88,-0.26 1.36,-0.26c0.18,0 0.37,0.01 0.55,0.04c0.18,0.02 0.36,0.06 0.53,0.11c0.09,0.03 0.18,0.05 0.27,0.08c0.08,0.02 0.17,0.03 0.27,0.03c0.08,0 0.15,-0.02 0.22,-0.06c0.07,-0.04 0.13,-0.08 0.2,-0.12c0.07,-0.05 0.14,-0.07 0.22,-0.07c0.16,0 0.27,0.05 0.31,0.15c0.05,0.1 0.1,0.22 0.13,0.34c0.03,0.09 0.07,0.21 0.12,0.35c0.05,0.15 0.1,0.3 0.15,0.46c0.05,0.16 0.09,0.31 0.13,0.45c0.03,0.14 0.05,0.25 0.05,0.34c0,0.15 -0.06,0.26 -0.18,0.33c-0.12,0.08 -0.24,0.11 -0.38,0.11c-0.14,0 -0.24,-0.03 -0.31,-0.1c-0.07,-0.07 -0.14,-0.16 -0.2,-0.26c-0.16,-0.24 -0.31,-0.45 -0.46,-0.63c-0.15,-0.19 -0.32,-0.33 -0.52,-0.43c-0.2,-0.11 -0.45,-0.16 -0.76,-0.16c-0.3,0 -0.55,0.07 -0.75,0.2c-0.19,0.13 -0.35,0.31 -0.47,0.53c-0.11,0.21 -0.19,0.45 -0.24,0.71c-0.05,0.25 -0.07,0.5 -0.07,0.75c0,0.18 0.01,0.36 0.03,0.55c0.03,0.18 0.06,0.36 0.11,0.54c0.07,0.23 0.18,0.46 0.31,0.68c0.14,0.21 0.32,0.39 0.52,0.53c0.21,0.13 0.45,0.2 0.71,0.2c0.11,0 0.2,-0.02 0.27,-0.05c0.06,-0.04 0.1,-0.13 0.1,-0.25l0,-0.72c0,-0.08 -0.02,-0.14 -0.05,-0.17c-0.03,-0.03 -0.08,-0.06 -0.14,-0.1c-0.08,-0.05 -0.17,-0.09 -0.27,-0.14c-0.09,-0.05 -0.17,-0.11 -0.24,-0.18c-0.06,-0.07 -0.09,-0.16 -0.09,-0.28c0,-0.18 0.05,-0.3 0.16,-0.37c0.11,-0.08 0.24,-0.11 0.4,-0.11l2.32,0c0.16,0 0.3,0.03 0.4,0.1c0.11,0.08 0.17,0.2 0.17,0.38z" fill="#041A41" id="svg_2"/>
  <path d="m14.32,14.75c0,0.18 -0.05,0.31 -0.16,0.4c-0.1,0.09 -0.23,0.13 -0.41,0.13l-1.05,0c-0.16,0 -0.3,-0.04 -0.4,-0.12c-0.1,-0.08 -0.15,-0.21 -0.15,-0.39c0,-0.15 0.02,-0.26 0.08,-0.33c0.06,-0.08 0.13,-0.14 0.21,-0.19c0.08,-0.05 0.15,-0.11 0.21,-0.17c0.07,-0.08 0.1,-0.18 0.11,-0.33l0.23,-3.43l0,-0.04c0,-0.12 -0.03,-0.21 -0.09,-0.27c-0.06,-0.06 -0.13,-0.12 -0.21,-0.17c-0.09,-0.05 -0.16,-0.11 -0.22,-0.19c-0.06,-0.08 -0.09,-0.2 -0.09,-0.35c0,-0.17 0.05,-0.3 0.15,-0.38c0.1,-0.09 0.24,-0.13 0.4,-0.13l1.67,0c0.31,0 0.55,0.09 0.71,0.27c0.16,0.19 0.28,0.41 0.37,0.68l0.76,2.24l0.75,-2.24c0.09,-0.28 0.22,-0.51 0.38,-0.68c0.15,-0.18 0.39,-0.27 0.71,-0.27l1.69,0c0.17,0 0.31,0.04 0.41,0.12c0.11,0.09 0.16,0.22 0.16,0.39c0,0.15 -0.03,0.27 -0.1,0.35c-0.06,0.08 -0.13,0.15 -0.22,0.2c-0.08,0.05 -0.15,0.11 -0.21,0.17c-0.07,0.06 -0.1,0.13 -0.1,0.24l0,0.02l0.2,3.47c0.01,0.15 0.04,0.26 0.1,0.33c0.06,0.07 0.12,0.12 0.2,0.16c0.07,0.04 0.13,0.09 0.18,0.16c0.06,0.07 0.09,0.18 0.09,0.34c0,0.17 -0.05,0.31 -0.15,0.4c-0.1,0.09 -0.24,0.14 -0.41,0.14l-2.34,0c-0.17,0 -0.31,-0.04 -0.41,-0.12c-0.1,-0.08 -0.15,-0.21 -0.15,-0.39c0,-0.14 0.03,-0.25 0.09,-0.33c0.06,-0.09 0.14,-0.16 0.22,-0.21c0.08,-0.06 0.16,-0.11 0.22,-0.17c0.06,-0.05 0.09,-0.13 0.09,-0.22l0,-0.03l-0.16,-2.23l-0.95,2.75c-0.05,0.14 -0.11,0.28 -0.18,0.41c-0.06,0.12 -0.15,0.23 -0.26,0.31c-0.1,0.09 -0.24,0.13 -0.41,0.13c-0.21,0 -0.37,-0.04 -0.48,-0.12c-0.1,-0.07 -0.2,-0.2 -0.3,-0.38c-0.07,-0.13 -0.13,-0.26 -0.18,-0.4l-0.97,-2.75l-0.15,2.22l0,0.04c0,0.11 0.02,0.19 0.08,0.26c0.05,0.07 0.11,0.13 0.17,0.18c0.07,0.06 0.13,0.13 0.19,0.21c0.05,0.07 0.08,0.18 0.08,0.31z" fill="#041A41" id="svg_3"/>
 </g>
</svg>