<?xml version="1.0" encoding="UTF-8"?>
<!DOCTYPE svg PUBLIC "-//W3C//DTD SVG 1.1//EN" "http://www.w3.org/Graphics/SVG/1.1/DTD/svg11.dtd">
<!-- Creator: CorelDRAW -->
<svg xmlns="http://www.w3.org/2000/svg" xml:space="preserve" width="40px" height="40px" version="1.1" style="shape-rendering:geometricPrecision; text-rendering:geometricPrecision; image-rendering:optimizeQuality; fill-rule:evenodd; clip-rule:evenodd"
viewBox="0 0 3.85 3.85"
 xmlns:xlink="http://www.w3.org/1999/xlink"
 xmlns:xodm="http://www.corel.com/coreldraw/odm/2003">
 <defs>
  <style type="text/css">
   <![CDATA[
    .fil0 {fill:none}
    .fil1 {fill:#87878F;fill-rule:nonzero}
   ]]>
  </style>
 </defs>
 <g id="Слой_x0020_1">
  <metadata id="CorelCorpID_0Corel-Layer"/>
  <rect class="fil0" width="3.85" height="3.85" rx="0.81" ry="0.85"/>
  <g id="_2188021202016">
   <path class="fil1" d="M1.22 0.57c-0.36,0 -0.65,0.29 -0.65,0.65l0 1.41c0,0.36 0.29,0.66 0.65,0.66l1.41 0c0.36,0 0.66,-0.3 0.66,-0.66l0 -1.41c0,-0.36 -0.3,-0.65 -0.66,-0.65l-1.41 0zm1.41 3l-1.41 0c-0.51,0 -0.93,-0.42 -0.93,-0.94l0 -1.41c0,-0.51 0.42,-0.93 0.93,-0.93l1.41 0c0.52,0 0.94,0.42 0.94,0.93l0 1.41c0,0.52 -0.42,0.94 -0.94,0.94z"/>
   <path class="fil1" d="M1.93 1.37c-0.31,0 -0.56,0.25 -0.56,0.56 0,0.31 0.25,0.56 0.56,0.56 0.31,0 0.56,-0.25 0.56,-0.56 0,-0.31 -0.25,-0.56 -0.56,-0.56zm0 1.4c-0.47,0 -0.84,-0.38 -0.84,-0.84 0,-0.47 0.37,-0.84 0.84,-0.84 0.46,0 0.84,0.37 0.84,0.84 0,0.46 -0.38,0.84 -0.84,0.84z"/>
   <path class="fil1" d="M3.01 1.04c0,0.11 -0.09,0.2 -0.21,0.2 -0.11,0 -0.2,-0.09 -0.2,-0.2 0,-0.11 0.09,-0.2 0.2,-0.2 0.12,0 0.21,0.09 0.21,0.2z"/>
  </g>
 </g>
</svg>
