<?xml version="1.0" encoding="UTF-8"?>
<!DOCTYPE svg PUBLIC "-//W3C//DTD SVG 1.1//EN" "http://www.w3.org/Graphics/SVG/1.1/DTD/svg11.dtd">
<!-- Creator: CorelDRAW 2018 (64-Bit) -->
<svg xmlns="http://www.w3.org/2000/svg" xml:space="preserve" width="14px" height="13px" version="1.1" style="shape-rendering:geometricPrecision; text-rendering:geometricPrecision; image-rendering:optimizeQuality; fill-rule:evenodd; clip-rule:evenodd"
viewBox="0 0 5.18 4.94"
 xmlns:xlink="http://www.w3.org/1999/xlink">
 <defs>
  <style type="text/css">
   <![CDATA[
    .fil0 {fill:#f4d710}
   ]]>
  </style>
 </defs>
 <g id="Слой_x0020_1">
  <metadata id="CorelCorpID_0Corel-Layer"/>
  <g id="_2101320812192">
   <path class="fil0" d="M2.54 3.3c-0.17,0 -0.29,-0.04 -0.39,-0.15 -0.14,-0.17 -0.12,-0.39 -0.12,-0.62 0,-0.22 0.11,-0.37 0.28,-0.45 0.27,-0.13 0.67,0.02 0.67,0.47 0,0.24 0.03,0.41 -0.11,0.59 -0.06,0.08 -0.2,0.16 -0.33,0.16zm0.93 -0.32c0,0.15 0.03,0.31 -0.14,0.32 -0.07,0.01 -0.15,-0.04 -0.15,-0.12l0 -1c0,-0.19 0.23,-0.15 0.39,-0.15 0.08,0 0.14,0.02 0.19,0.05l0.14 0.09c0.18,0.17 0.19,0.51 -0.02,0.7 -0.1,0.08 -0.23,0.11 -0.41,0.11zm-2.33 -0.78c0,-0.1 0.07,-0.17 0.13,-0.17l0.52 0c0.04,0 0.07,0.03 0.09,0.05 0.07,0.06 0.05,0.2 -0.05,0.24 -0.09,0.03 -0.15,-0.04 -0.15,0.07l0 0.68c0,0.08 0.01,0.14 -0.04,0.19 -0.08,0.09 -0.25,0.04 -0.25,-0.1l0 -0.83c-0.09,0 -0.15,0.01 -0.2,-0.04 -0.03,-0.02 -0.05,-0.06 -0.05,-0.09zm-1.14 -0.3c0,0.1 0.02,0.11 0.09,0.21l0.76 1.13c0.03,0.04 0.02,0.04 0.02,0.11 0,0.25 0.04,0.72 0.04,0.97 0,0.09 0.01,0.16 0.01,0.24 0,0.22 -0.01,0.38 0.18,0.38 0.04,0 0.32,-0.09 0.38,-0.1l1.11 -0.31 1.11 0.31c0.11,0.03 0.31,0.1 0.42,0.1 0.06,0 0.12,-0.07 0.13,-0.12l0.06 -1.46c0,-0.11 0,-0.08 0.07,-0.19l0.61 -0.91c0.03,-0.05 0.19,-0.27 0.19,-0.32 0,-0.09 -0.02,-0.14 -0.13,-0.18 -0.07,-0.02 -0.14,-0.05 -0.21,-0.07 -0.07,-0.03 -0.13,-0.05 -0.2,-0.08l-0.82 -0.3c-0.04,-0.02 -0.06,-0.02 -0.1,-0.04 -0.05,-0.02 -0.06,-0.02 -0.09,-0.05l-0.74 -0.94c-0.04,-0.06 -0.09,-0.1 -0.13,-0.16 -0.05,-0.08 -0.07,-0.12 -0.18,-0.12 -0.1,0 -0.2,0.16 -0.28,0.27l-0.74 0.94c-0.06,0.07 -0.31,0.14 -0.39,0.17l-1.03 0.38c-0.03,0.01 -0.07,0.02 -0.09,0.05 -0.02,0.02 -0.05,0.05 -0.05,0.09z"/>
   <path class="fil0" d="M2.34 2.48l0 0.36c0,0.16 0.18,0.22 0.29,0.12 0.03,-0.03 0.05,-0.07 0.05,-0.12l0 -0.36c0,-0.08 -0.1,-0.15 -0.17,-0.15 -0.08,0 -0.17,0.07 -0.17,0.15z"/>
   <path class="fil0" d="M3.47 2.68c0.1,0 0.16,0.01 0.22,-0.05 0.11,-0.11 0.04,-0.3 -0.15,-0.3l-0.07 0 0 0.35z"/>
  </g>
 </g>
</svg>
