<?xml version="1.0" encoding="UTF-8"?>
<!DOCTYPE svg PUBLIC "-//W3C//DTD SVG 1.1//EN" "http://www.w3.org/Graphics/SVG/1.1/DTD/svg11.dtd">
<!-- Creator: CorelDRAW 2018 (64-Bit) -->
<svg xmlns="http://www.w3.org/2000/svg" xml:space="preserve" width="14px" height="14px" version="1.1" style="shape-rendering:geometricPrecision; text-rendering:geometricPrecision; image-rendering:optimizeQuality; fill-rule:evenodd; clip-rule:evenodd"
viewBox="0 0 4.73 4.73"
 xmlns:xlink="http://www.w3.org/1999/xlink">
 <defs>
  <style type="text/css">
   <![CDATA[
    .fil0 {fill:#f4d710}
   ]]>
  </style>
 </defs>
 <g id="Слой_x0020_1">
  <metadata id="CorelCorpID_0Corel-Layer"/>
  <path class="fil0" d="M0 0.59c0,0.29 0.09,0.39 0.28,0.58 0.09,0.09 1.16,1.15 1.19,1.2 -0.03,0.04 -1.09,1.09 -1.19,1.19 -0.06,0.06 -0.13,0.12 -0.18,0.21 -0.06,0.08 -0.09,0.18 -0.1,0.29l0 0.09c0.01,0.14 0.07,0.29 0.18,0.4 0.11,0.11 0.26,0.17 0.4,0.18l0.09 0c0.1,-0.01 0.2,-0.04 0.29,-0.09 0.12,-0.08 0.49,-0.47 0.61,-0.59 0.06,-0.05 0.75,-0.76 0.8,-0.79 0.09,0.07 1.21,1.25 1.4,1.37 0.08,0.06 0.18,0.09 0.27,0.1l0.12 0c0.3,-0.03 0.57,-0.28 0.57,-0.59 0,-0.29 -0.09,-0.39 -0.28,-0.58 -0.09,-0.09 -1.16,-1.15 -1.19,-1.19 0.07,-0.1 1.25,-1.22 1.37,-1.41 0.06,-0.08 0.09,-0.18 0.1,-0.27l0 -0.11c-0.03,-0.31 -0.28,-0.58 -0.59,-0.58 -0.29,0 -0.39,0.09 -0.58,0.28 -0.09,0.09 -1.15,1.16 -1.19,1.19 -0.1,-0.07 -1.22,-1.25 -1.41,-1.37 -0.09,-0.06 -0.19,-0.09 -0.29,-0.1l-0.08 0c-0.15,0.01 -0.3,0.07 -0.41,0.18 -0.1,0.11 -0.18,0.26 -0.18,0.41z"/>
 </g>
</svg>
