<?xml version="1.0" encoding="UTF-8"?>
<!DOCTYPE svg PUBLIC "-//W3C//DTD SVG 1.1//EN" "http://www.w3.org/Graphics/SVG/1.1/DTD/svg11.dtd">
<!-- Creator: CorelDRAW -->
<svg xmlns="http://www.w3.org/2000/svg" xml:space="preserve" width="24px" height="20px" version="1.1" style="shape-rendering:geometricPrecision; text-rendering:geometricPrecision; image-rendering:optimizeQuality; fill-rule:evenodd; clip-rule:evenodd"
viewBox="0 0 19.17 16.05"
 xmlns:xlink="http://www.w3.org/1999/xlink"
 xmlns:xodm="http://www.corel.com/coreldraw/odm/2003">
 <defs>
  <style type="text/css">
   <![CDATA[
    .fil0 {fill:#FDFDFF}
   ]]>
  </style>
 </defs>
 <g id="Слой_x0020_1">
  <metadata id="CorelCorpID_0Corel-Layer"/>
  <g id="_1370963106944">
   <path class="fil0" d="M15.82 2.88c-0.02,0.48 -2.13,2.15 -2.59,2.59l-5.46 4.9c-0.34,0.28 -0.24,0.46 -0.28,1.01 -0.07,1.04 -0.25,2.82 -0.25,3.69 0.76,-0.06 1.02,-0.6 1.57,-1.12 0.47,-0.44 0.99,-0.86 1.41,-1.32 0.27,0.1 2.44,1.75 2.86,2.05 0.9,0.67 2.38,2.13 3.01,0.89 0.24,-0.48 1.55,-7.04 1.79,-8.15 0.28,-1.35 0.57,-2.69 0.86,-4.06 0.2,-0.93 1.15,-3.69 -0.65,-3.33l-10.74 4.12c-1.18,0.47 -2.42,0.9 -3.61,1.39 -0.77,0.31 -3.06,1.08 -3.49,1.44 -0.72,0.6 0.31,1 0.82,1.16 0.63,0.2 1.31,0.4 1.93,0.6 2.33,0.74 1.68,0.93 3.47,-0.25 1,-0.65 2.04,-1.29 3.07,-1.93 1.01,-0.62 2.01,-1.29 3.03,-1.9 0.65,-0.39 2.6,-1.82 3.25,-1.78z"/>
  </g>
 </g>
</svg>
