<!DOCTYPE svg PUBLIC "-//W3C//DTD SVG 1.1//EN" "http://www.w3.org/Graphics/SVG/1.1/DTD/svg11.dtd">
<!-- Uploaded to: SVG Repo, www.svgrepo.com, Transformed by: SVG Repo Mixer Tools -->
<svg fill="#3298cc" width="800px" height="800px" viewBox="0 0 24 24" id="right-direction-circle" data-name="Flat Line" xmlns="http://www.w3.org/2000/svg" class="icon flat-line" transform="matrix(-1, 0, 0, 1, 0, 0)">
<g id="SVGRepo_bgCarrier" stroke-width="0"/>
<g id="SVGRepo_tracerCarrier" stroke-linecap="round" stroke-linejoin="round"/>
<g id="SVGRepo_iconCarrier">
<path id="secondary" d="M12,3a9,9,0,1,0,9,9A9,9,0,0,0,12,3Zm4.61,9.82L12,16V14H7V10h5V8l4.61,3.18A1,1,0,0,1,16.61,12.82Z" style="fill: #ffffff; stroke-width: 2;"/>
<path id="primary" d="M12,14H7V10h5V8l4.61,3.18a1,1,0,0,1,0,1.64L12,16Zm9-2a9,9,0,1,0-9,9A9,9,0,0,0,21,12Z" style="fill: none; stroke: #3298cc; stroke-linecap: round; stroke-linejoin: round; stroke-width: 2;"/>
</g>
</svg>