<?xml version="1.0" encoding="UTF-8"?>
<!DOCTYPE svg PUBLIC "-//W3C//DTD SVG 1.1//EN" "http://www.w3.org/Graphics/SVG/1.1/DTD/svg11.dtd">
<!-- Creator: CorelDRAW 2018 (64-Bit) -->
<svg xmlns="http://www.w3.org/2000/svg" xml:space="preserve" width="14px" height="14px" version="1.1" style="shape-rendering:geometricPrecision; text-rendering:geometricPrecision; image-rendering:optimizeQuality; fill-rule:evenodd; clip-rule:evenodd"
viewBox="0 0 248.16 248.16"
 xmlns:xlink="http://www.w3.org/1999/xlink">
 <defs>
  <style type="text/css">
   <![CDATA[
    .fil0 {fill:#4B7498}
   ]]>
  </style>
 </defs>
 <g id="Слой_x0020_1">
  <metadata id="CorelCorpID_0Corel-Layer"/>
  <g id="_2101028402080">
   <path class="fil0" d="M0 239.37c0,5.21 3.4,8.79 8.27,8.79 8.42,0 49.42,-15.91 59.78,-19.33 2.88,-0.95 5.87,-1.73 8.32,-3.05 2.57,-1.39 19.54,-18.98 23.02,-22.47l102.37 -102.37c2.82,-2.81 9.39,-8.72 11.24,-11.5l-54.41 -54.16c-2.09,1.37 -19.19,18.94 -22.49,22.24l-102.11 102.1c-15.26,15.27 -10.1,7.8 -17.25,28.25 -1.99,5.69 -3.94,11.23 -5.95,16.8 -1.06,2.94 -10.79,31.65 -10.79,34.7z"/>
   <path class="fil0" d="M170.09 23.27l54.42 54.67c3,-1.97 10.22,-9.96 13.44,-13.19 6.35,-6.35 10.21,-8.25 10.21,-18.74 0,-8.49 -13.39,-19.33 -20.03,-25.98 -4.01,-4 -7.63,-7.62 -11.64,-11.63 -4.96,-4.96 -8.29,-8.4 -16.41,-8.4 -8.16,0 -12.18,5.72 -16.42,9.95 -3.22,3.23 -10.43,11.22 -13.57,13.32z"/>
  </g>
 </g>
</svg>
