<svg width="100" height="58" viewBox="0 0 100 58" fill="none" xmlns="http://www.w3.org/2000/svg">
<g clip-path="url(#clip0_206_777)">
<rect x="9.62744" y="0.214294" width="93" height="34" rx="10" transform="rotate(15 9.62744 0.214294)" fill="#F4D710"/>
<path d="M23.6753 18.5385L20.8355 17.7776L19.0403 24.4772L17.4523 24.0517L19.6264 15.9379L25.6422 17.5499L23.4681 25.6637L21.8802 25.2382L23.6753 18.5385ZM25.6873 21.9101C26.0496 20.5578 26.6256 19.5982 27.4153 19.0313C28.207 18.4566 29.1554 18.3173 30.2604 18.6134C30.8399 18.7687 31.3192 19.0048 31.6981 19.3216C32.077 19.6385 32.3597 20.0207 32.5462 20.4682C32.7327 20.9157 32.8262 21.417 32.8265 21.972C32.8269 22.527 32.7422 23.1213 32.5724 23.755C32.2101 25.1073 31.6292 26.0697 30.8297 26.6423C30.0401 27.2093 29.0966 27.3457 27.9993 27.0517C27.4121 26.8943 26.929 26.6572 26.5501 26.3404C26.1712 26.0235 25.8884 25.6413 25.7019 25.1938C25.5231 24.7483 25.4335 24.2481 25.4332 23.6931C25.4328 23.1381 25.5175 22.5438 25.6873 21.9101ZM27.3564 22.3574C27.2467 22.7669 27.18 23.1549 27.1564 23.5212C27.1348 23.8799 27.1605 24.2015 27.2333 24.486C27.3138 24.7726 27.4475 25.0155 27.6344 25.2147C27.8212 25.4138 28.0692 25.5548 28.3782 25.6376C28.9424 25.7887 29.438 25.6855 29.8651 25.3279C30.2922 24.9702 30.6383 24.2968 30.9033 23.3077C31.0089 22.9136 31.0725 22.5373 31.094 22.1786C31.1233 21.8221 31.1026 21.4976 31.0318 21.2054C30.961 20.9131 30.8323 20.6674 30.6454 20.4682C30.4607 20.2614 30.206 20.1145 29.8815 20.0275C29.3174 19.8763 28.8197 19.9873 28.3884 20.3604C27.9592 20.7258 27.6152 21.3914 27.3564 22.3574ZM38.8434 22.6028L36.0036 21.8418L34.2084 28.5415L32.6204 28.116L34.7945 20.0022L40.8103 21.6141L38.6362 29.7279L37.0482 29.3024L38.8434 22.6028ZM43.95 26.2942L43.8992 27.4111L43.9688 27.4298L44.4462 26.3899L46.6136 23.1691L48.248 23.6071L44.5888 28.6395C44.3008 29.0344 44.0321 29.3724 43.7829 29.6534C43.5414 29.9366 43.2989 30.1615 43.0555 30.3282C42.8218 30.4892 42.5785 30.5938 42.3254 30.6419C42.0744 30.6823 41.7982 30.6621 41.4968 30.5814C41.2418 30.5131 41.0384 30.4378 40.8864 30.3557C40.7402 30.2834 40.5898 30.1644 40.4354 29.9988L41.1859 28.8209C41.2986 28.9257 41.407 29.0003 41.511 29.0447C41.6151 29.0891 41.7289 29.1279 41.8526 29.1611C42.2157 29.2584 42.5474 29.0408 42.8474 28.5083L41.3976 21.7715L43.2638 22.2716L43.95 26.2942ZM52.2978 26.2079L50.5708 25.7451C50.3432 26.4709 50.1293 27.13 49.9291 27.7224C49.729 28.3148 49.5289 28.8451 49.3289 29.3133C49.1388 29.7758 48.9399 30.178 48.7323 30.52C48.5247 30.8619 48.2997 31.1453 48.0572 31.3702C47.9014 31.519 47.7385 31.6327 47.5683 31.7113C47.4059 31.792 47.2419 31.8475 47.0765 31.8777C46.911 31.9079 46.7518 31.9149 46.5987 31.8988C46.4514 31.8924 46.3159 31.8726 46.1922 31.8395C46.0145 31.7919 45.868 31.7361 45.7526 31.672C45.6429 31.6178 45.5373 31.5481 45.4359 31.4629L45.9763 30.1418C46.0185 30.1697 46.0618 30.1937 46.1061 30.2138C46.1503 30.234 46.1957 30.2503 46.242 30.2627C46.3657 30.2958 46.4937 30.297 46.6262 30.2662C46.7664 30.2375 46.8987 30.1612 47.023 30.0371C47.1845 29.8982 47.3512 29.6778 47.5232 29.376C47.6972 29.0665 47.8835 28.6651 48.0819 28.1716C48.2881 27.6803 48.5048 27.0881 48.7318 26.3953C48.961 25.6947 49.2095 24.8752 49.4776 23.9365L54.2647 25.2193L52.0907 33.333L50.5027 32.9075L52.2978 26.2079ZM58.8025 35.1315L57.2145 34.706L58.0748 31.4952L57.1812 31.4918L54.6876 34.0289L52.8446 33.5351L55.2374 31.2816L56.0664 30.9695C55.8357 30.8414 55.6287 30.6866 55.4455 30.505C55.2643 30.3156 55.1195 30.0988 55.0111 29.8544C54.9026 29.61 54.8383 29.3401 54.818 29.0448C54.7998 28.7418 54.8373 28.4164 54.9305 28.0687C55.061 27.5818 55.2557 27.1951 55.5147 26.9083C55.7738 26.6216 56.0809 26.4182 56.4361 26.298C56.7934 26.1701 57.192 26.1196 57.6321 26.1464C58.0742 26.1655 58.5387 26.2402 59.0255 26.3707C59.1569 26.4059 59.3065 26.4501 59.4745 26.5034C59.6424 26.5567 59.8132 26.6148 59.9867 26.6779C60.1681 26.7431 60.3406 26.81 60.5044 26.8787C60.6759 26.9496 60.8261 27.0229 60.9548 27.0988L58.8025 35.1315ZM58.4496 27.732C58.2409 27.6761 58.0387 27.6426 57.8429 27.6315C57.6471 27.6205 57.4672 27.6427 57.3033 27.6981C57.1393 27.7536 56.9931 27.8511 56.8646 27.9906C56.7439 28.1322 56.6493 28.3304 56.581 28.5854C56.5168 28.825 56.5006 29.0401 56.5323 29.2308C56.5661 29.4138 56.638 29.578 56.7481 29.7235C56.8603 29.8612 57.0029 29.9781 57.176 30.0742C57.349 30.1702 57.5437 30.2472 57.7601 30.3052L58.3512 30.4636L59.0252 27.9483C58.9443 27.9101 58.8586 27.8747 58.7679 27.8421C58.687 27.8039 58.5809 27.7672 58.4496 27.732ZM62.3582 27.4749C62.6993 27.5 63.0672 27.5489 63.4619 27.6215C63.8663 27.6885 64.2617 27.7737 64.6481 27.8772C65.0499 27.9849 65.4424 28.1273 65.8256 28.3046C66.2186 28.4761 66.5505 28.7058 66.8212 28.9937C67.094 29.2739 67.2832 29.6186 67.3889 30.0279C67.5043 30.4315 67.4865 30.9154 67.3353 31.4795C67.1987 31.9895 66.9939 32.3984 66.7209 32.7063C66.45 33.0064 66.1377 33.2291 65.784 33.3745C65.4303 33.52 65.0507 33.5922 64.6451 33.5912C64.2473 33.5922 63.8475 33.5389 63.4456 33.4313C63.407 33.4209 63.3452 33.4044 63.2602 33.3816C63.1752 33.3588 63.0863 33.335 62.9936 33.3101C62.9029 33.2776 62.8123 33.245 62.7216 33.2124C62.6387 33.1819 62.5789 33.1576 62.5424 33.1395L61.7939 35.933L60.2059 35.5075L62.3582 27.4749ZM64.4091 29.2792C64.2546 29.2377 64.1057 29.2061 63.9624 29.1843C63.8213 29.1548 63.7061 29.1363 63.617 29.129L62.912 31.7602C62.9408 31.7762 62.9851 31.7964 63.0448 31.8207C63.1046 31.8449 63.1682 31.8703 63.2357 31.8966C63.3052 31.9153 63.3709 31.9329 63.4327 31.9494C63.5023 31.9681 63.5525 31.9815 63.5834 31.9898C63.7921 32.0457 64.002 32.0813 64.2133 32.0965C64.4323 32.1137 64.6364 32.0939 64.8256 32.0369C65.0168 31.9722 65.1837 31.8595 65.3261 31.6989C65.4762 31.5404 65.5917 31.3104 65.6724 31.0091C65.7408 30.7541 65.7503 30.533 65.7011 30.3459C65.6539 30.151 65.5665 29.9827 65.4388 29.8408C65.3189 29.701 65.1676 29.5859 64.9847 29.4955C64.8019 29.4051 64.61 29.333 64.4091 29.2792ZM72.3044 35.1093L69.3371 34.3142L68.4271 37.7104L66.8391 37.2849L69.0132 29.1711L70.6011 29.5966L69.716 32.9L72.6833 33.6951L73.5685 30.3917L75.1564 30.8172L72.9824 38.931L71.3944 38.5055L72.3044 35.1093ZM75.2212 35.1827C75.5835 33.8304 76.1595 32.8708 76.9492 32.3038C77.7409 31.7291 78.6892 31.5899 79.7943 31.8859C80.3738 32.0412 80.853 32.2773 81.2319 32.5942C81.6108 32.911 81.8936 33.2932 82.0801 33.7408C82.2666 34.1883 82.3601 34.6896 82.3604 35.2446C82.3608 35.7996 82.2761 36.3939 82.1063 37.0275C81.744 38.3798 81.1631 39.3423 80.3636 39.9149C79.574 40.4818 78.6305 40.6183 77.5332 40.3243C76.9459 40.1669 76.4628 39.9298 76.0839 39.6129C75.705 39.2961 75.4223 38.9139 75.2358 38.4664C75.057 38.0209 74.9674 37.5207 74.9671 36.9657C74.9667 36.4107 75.0514 35.8163 75.2212 35.1827ZM76.8903 35.6299C76.7806 36.0395 76.7139 36.4274 76.6903 36.7938C76.6687 37.1524 76.6943 37.474 76.7672 37.7586C76.8477 38.0452 76.9814 38.2881 77.1683 38.4872C77.3551 38.6864 77.603 38.8273 77.9121 38.9102C78.4762 39.0613 78.9718 38.9581 79.399 38.6004C79.8261 38.2428 80.1722 37.5694 80.4372 36.5803C80.5428 36.1862 80.6064 35.8098 80.6279 35.4512C80.6572 35.0946 80.6365 34.7702 80.5657 34.4779C80.4949 34.1857 80.3661 33.9399 80.1793 33.7408C79.9946 33.5339 79.7399 33.387 79.4154 33.3001C78.8513 33.1489 78.3536 33.2599 77.9223 33.633C77.4931 33.9983 77.1491 34.664 76.8903 35.6299Z" fill="black"/>
</g>
<defs>
<clipPath id="clip0_206_777">
<rect x="9.62744" y="0.214294" width="93" height="34" rx="10" transform="rotate(15 9.62744 0.214294)" fill="white"/>
</clipPath>
</defs>
</svg>
