<svg width="20" height="21" viewBox="0 0 20 21" fill="none" xmlns="http://www.w3.org/2000/svg">
<mask id="path-1-outside-1_16_18590" maskUnits="userSpaceOnUse" x="0" y="0" width="20" height="21" fill="black">
<rect fill="white" width="20" height="21"/>
<path d="M0 10C0 4.47715 4.47715 0 10 0C15.5228 0 20 4.47715 20 10C20 15.5228 15.5228 20 10 20C4.47715 20 0 15.5228 0 10Z"/>
</mask>
<path d="M0 10C0 4.47715 4.47715 0 10 0C15.5228 0 20 4.47715 20 10C20 15.5228 15.5228 20 10 20C4.47715 20 0 15.5228 0 10Z" fill="#F4D710"/>
<path d="M0 0H20H0ZM20 11C20 16.5228 15.5228 21 10 21C4.47715 21 0 16.5228 0 11V10C0 14.9706 4.47715 19 10 19C15.5228 19 20 14.9706 20 10V11ZM0 20V0V20ZM20 0V20V0Z" fill="black" fill-opacity="0.2" mask="url(#path-1-outside-1_16_18590)"/>
<path d="M8.768 11.796C8.72467 11.3453 8.74633 10.964 8.833 10.652C8.91967 10.3313 9.03667 10.0583 9.184 9.833C9.34 9.599 9.51333 9.39967 9.704 9.235C9.90333 9.06167 10.0853 8.897 10.25 8.741C10.4233 8.585 10.5663 8.42467 10.679 8.26C10.7917 8.08667 10.848 7.883 10.848 7.649C10.848 7.34567 10.7613 7.103 10.588 6.921C10.4233 6.739 10.1243 6.648 9.691 6.648C9.55233 6.648 9.405 6.66533 9.249 6.7C9.093 6.726 8.937 6.76933 8.781 6.83C8.625 6.882 8.47333 6.947 8.326 7.025C8.18733 7.09433 8.06167 7.168 7.949 7.246L7.299 5.998C7.62833 5.77267 8.00533 5.58633 8.43 5.439C8.86333 5.29167 9.38333 5.218 9.99 5.218C10.8047 5.218 11.4417 5.41733 11.901 5.816C12.3603 6.206 12.59 6.73467 12.59 7.402C12.59 7.844 12.5293 8.21233 12.408 8.507C12.2953 8.793 12.1523 9.04 11.979 9.248C11.8057 9.44733 11.615 9.625 11.407 9.781C11.199 9.937 11.0083 10.106 10.835 10.288C10.6617 10.4613 10.5143 10.665 10.393 10.899C10.2717 11.133 10.211 11.432 10.211 11.796H8.768ZM8.508 13.642C8.508 13.3387 8.60333 13.1003 8.794 12.927C8.98467 12.745 9.236 12.654 9.548 12.654C9.87733 12.654 10.1373 12.745 10.328 12.927C10.5187 13.1003 10.614 13.3387 10.614 13.642C10.614 13.9453 10.5187 14.188 10.328 14.37C10.1373 14.552 9.87733 14.643 9.548 14.643C9.236 14.643 8.98467 14.552 8.794 14.37C8.60333 14.188 8.508 13.9453 8.508 13.642Z" fill="black"/>
</svg>
