<?xml version="1.0" encoding="UTF-8"?>
<!DOCTYPE svg PUBLIC "-//W3C//DTD SVG 1.1//EN" "http://www.w3.org/Graphics/SVG/1.1/DTD/svg11.dtd">
<!-- Creator: CorelDRAW -->
<svg xmlns="http://www.w3.org/2000/svg" xml:space="preserve" width="100px" height="100px" version="1.1" style="shape-rendering:geometricPrecision; text-rendering:geometricPrecision; image-rendering:optimizeQuality; fill-rule:evenodd; clip-rule:evenodd"
viewBox="0 0 100 100"
 xmlns:xlink="http://www.w3.org/1999/xlink"
 xmlns:xodm="http://www.corel.com/coreldraw/odm/2003">
 <defs>
  <style type="text/css">
   <![CDATA[
    .str0 {stroke:#F9D914;stroke-width:3.13;stroke-miterlimit:22.9256}
    .fil0 {fill:none}
    .fil1 {fill:#F9D914;fill-rule:nonzero}
   ]]>
  </style>
 </defs>
 <g id="Слой_x0020_1">
  <metadata id="CorelCorpID_0Corel-Layer"/>
  <circle class="fil0 str0" cx="50" cy="50" r="48.44"/>
  <path class="fil1" d="M77.43 42.41c0,0 0,0 0,0l-2.27 -2.27c1.81,-0.23 3.86,-1.81 3.86,-3.4 0,-1.81 -2.71,-2.5 -4.76,-2.5 -2.27,0 -2.5,1.59 -2.5,2.73l-5.66 -5.45c-1.14,-1.13 -3.39,-2.05 -5,-2.05l-11.1 0 0 0 -11.1 0c-1.6,0 -3.64,0.92 -5,2.05l-5.66 5.45c0,-1.14 -0.23,-2.73 -2.5,-2.73 -2.04,0 -4.52,0.69 -4.52,2.5 0,1.59 1.81,3.17 3.62,3.4l-2.04 2.27c-0.23,0 -0.23,0 -0.23,0 -2.27,2.04 -3.85,5.89 -3.85,8.6l0 7.94c0,2.03 0.66,3.64 2.04,4.99l0 3.17c0,1.81 1.35,3.42 3.4,3.42l4.08 0c1.81,0 3.39,-1.61 3.39,-3.42l0 -0.89 18.37 0 0 0 18.37 0 0 0.89c0,1.81 1.58,3.42 3.39,3.42l4.08 0c2.05,0 3.4,-1.61 3.4,-3.42l0 -3.17c1.38,-1.35 2.04,-2.96 2.04,-4.99l0 -7.94c0,-2.71 -1.58,-6.56 -3.85,-8.6l0 0 0 0zm-41.26 -8.63l0 0c0.69,-0.68 2.04,-1.12 2.73,-1.12l11.1 0 0 0 11.1 0c0.69,0 2.04,0.44 2.73,1.12l7.47 7.26 -21.3 0 0 0 -21.31 0 7.48 -7.26 0 0zm-14.95 15.88l0 0c0,-2.05 1.58,-3.63 3.39,-3.63 2.04,0 8.17,3.86 8.17,5.67 0,2.04 -6.13,1.58 -8.17,1.58 -1.81,0 -3.39,-1.58 -3.39,-3.62l0 0zm10.41 13.14l0 0 -0.66 0 -0.69 0 -3.86 0c-1.14,-0.44 -1.81,-0.67 -2.49,-1.13 -0.23,-0.23 -0.46,-0.46 -0.67,-0.69 0,-0.22 -0.23,-0.43 -0.23,-0.66 -0.46,-1.37 0.44,-2.73 0.44,-2.73l6.58 0 4.54 5.21 -2.96 0 0 0 0 0 0 0zm27.89 0l0 0 -9.52 0 0 0 -9.52 0c-2.04,0 -3.62,-1.59 -3.62,-3.62l13.14 0 0 0 13.14 0c0,2.03 -1.58,3.62 -3.62,3.62zm0.91 -6.1l0 0 -10.43 0 0 0 -10.43 0c-2.27,0 -3.86,-2.73 -3.86,-5.92l14.29 0 0 0 14.29 0c0,3.19 -1.58,5.92 -3.86,5.92zm16.54 3.62l0 0c0,0.23 -0.23,0.44 -0.23,0.66 -0.2,0.23 -0.43,0.46 -0.66,0.69 -0.69,0.46 -1.38,0.69 -2.5,1.13l-3.86 0 -0.68 0 -0.67 0 -2.96 0 4.54 -5.21 6.59 0c0,0 0.89,1.36 0.43,2.73l0 0 0 0zm-1.58 -7.04l0 0c-2.04,0 -8.17,0.46 -8.17,-1.58 0,-1.81 6.13,-5.67 8.17,-5.67 1.81,0 3.4,1.58 3.4,3.63 0,2.03 -1.59,3.62 -3.4,3.62l0 0z"/>
 </g>
</svg>
