<?xml version="1.0" encoding="UTF-8"?>
<!DOCTYPE svg PUBLIC "-//W3C//DTD SVG 1.1//EN" "http://www.w3.org/Graphics/SVG/1.1/DTD/svg11.dtd">
<!-- Creator: CorelDRAW -->
<svg xmlns="http://www.w3.org/2000/svg" xml:space="preserve" width="100px" height="100px" version="1.1" style="shape-rendering:geometricPrecision; text-rendering:geometricPrecision; image-rendering:optimizeQuality; fill-rule:evenodd; clip-rule:evenodd"
viewBox="0 0 17.69 17.69"
 xmlns:xlink="http://www.w3.org/1999/xlink"
 xmlns:xodm="http://www.corel.com/coreldraw/odm/2003">
 <defs>
  <style type="text/css">
   <![CDATA[
    .str0 {stroke:#F9D914;stroke-width:0.55;stroke-miterlimit:22.9256}
    .fil0 {fill:none}
    .fil1 {fill:#F9D914;fill-rule:nonzero}
   ]]>
  </style>
 </defs>
 <g id="Слой_x0020_1">
  <metadata id="CorelCorpID_0Corel-Layer"/>
  <circle class="fil0 str0" cx="8.85" cy="8.85" r="8.57"/>
  <g id="_2108463082144">
   <path class="fil1" d="M14.05 11.35l0 -1.97 0.16 -0.03 -5.39 -1.85 -5.4 1.85 1.94 0.64 3.46 1.17 3.46 -1.17 1.48 -0.51 0 1.87 -0.16 0 0 0.19 0.06 0c-0.06,0.07 -0.09,0.17 -0.09,0.26l0 1.13c0,0.2 0.13,0.36 0.35,0.36 0.2,0 0.33,-0.16 0.33,-0.36l0 -1.13c0,-0.09 -0.04,-0.19 -0.1,-0.26l0.06 0 0 -0.19 -0.16 0 0 0zm-1.77 -0.81l-3.37 1.13c-0.03,0.04 -0.06,0.04 -0.09,0.04 -0.03,0 -0.07,0 -0.1,-0.04l-3.36 -1.13 0 2.81 0 0 0 0.04c0,0.35 1.55,1.09 3.46,1.09 1.9,0 3.42,-0.74 3.42,-1.09l0 -0.04 0.03 0 0 -2.81 0.01 0z"/>
   <path class="fil1" d="M9.66 6.44c-0.68,0 -1.23,-0.52 -1.23,-1.2 0,-0.64 0.55,-1.19 1.23,-1.19 0.64,0 1.19,0.55 1.19,1.19 0,0.68 -0.55,1.2 -1.19,1.2zm3.04 1.42c-0.55,0 -0.97,-0.45 -0.97,-1 0,-0.55 0.45,-1 1,-0.97 0.55,0 1,0.45 1,1 -0.03,0.55 -0.49,1 -1.03,0.97zm1.55 -0.84c0.03,-0.1 0.03,-0.23 0,-0.32l-0.26 -0.07c0,-0.06 -0.03,-0.13 -0.07,-0.19l0.2 -0.2c-0.04,-0.06 -0.04,-0.09 -0.07,-0.16 -0.03,-0.03 -0.06,-0.09 -0.09,-0.13l-0.26 0.07c-0.04,-0.03 -0.1,-0.1 -0.16,-0.13l0.09 -0.26c-0.09,-0.06 -0.19,-0.13 -0.29,-0.16l-0.19 0.19c-0.07,-0.03 -0.13,-0.06 -0.2,-0.06l-0.09 -0.26c-0.1,0 -0.2,0 -0.33,0l-0.06 0.26c-0.07,0.03 -0.13,0.03 -0.2,0.06l-0.19 -0.19c-0.03,0.03 -0.1,0.03 -0.16,0.06 -0.03,0.04 -0.07,0.07 -0.13,0.1l0.1 0.26c-0.07,0.06 -0.13,0.1 -0.16,0.16l-0.26 -0.06c-0.07,0.06 -0.13,0.16 -0.16,0.29l0.19 0.16c-0.03,0.06 -0.03,0.16 -0.07,0.22l-0.25 0.07c0,0.1 0,0.23 0,0.32l0.25 0.07c0.04,0.06 0.04,0.13 0.07,0.19l-0.19 0.19c0.03,0.07 0.06,0.1 0.09,0.17 0.03,0.03 0.07,0.09 0.1,0.13l0.26 -0.07c0.03,0.03 0.09,0.1 0.13,0.13l-0.07 0.26c0.1,0.06 0.2,0.13 0.29,0.16l0.2 -0.19c0.06,0.03 0.13,0.03 0.19,0.06l0.07 0.26c0.13,0 0.22,0 0.32,0l0.06 -0.26c0.07,-0.03 0.17,-0.03 0.23,-0.06l0.16 0.19c0.07,-0.03 0.13,-0.06 0.16,-0.1 0.07,0 0.1,-0.03 0.13,-0.06l-0.06 -0.26c0.06,-0.06 0.09,-0.1 0.16,-0.16l0.26 0.06c0.06,-0.09 0.09,-0.19 0.16,-0.29l-0.19 -0.19c0,-0.07 0.03,-0.13 0.03,-0.2l0.26 -0.06 0 0zm-1.04 -0.45c0.16,0.26 0.1,0.61 -0.19,0.77 -0.29,0.2 -0.65,0.1 -0.81,-0.19 -0.16,-0.29 -0.06,-0.61 0.19,-0.78 0.3,-0.19 0.65,-0.09 0.81,0.2zm-1.45 0.29c0,0.52 0.42,0.97 0.94,0.97 0.51,0 0.96,-0.42 0.96,-0.94 0.04,-0.52 -0.38,-0.97 -0.93,-0.97 -0.52,0 -0.94,0.42 -0.97,0.94zm-1.29 -1.68c0.06,0.45 -0.3,0.87 -0.75,0.9 -0.48,0.04 -0.87,-0.29 -0.9,-0.74 -0.07,-0.48 0.29,-0.87 0.74,-0.94 0.49,-0.03 0.87,0.33 0.91,0.78zm-1.94 0.06c0,0.62 0.51,1.13 1.13,1.13 0.61,0 1.1,-0.51 1.1,-1.13 0,-0.61 -0.49,-1.1 -1.1,-1.1 -0.62,0 -1.13,0.49 -1.13,1.1zm3.03 0.68c0.07,-0.16 0.1,-0.32 0.1,-0.48l-0.32 -0.16c0,-0.07 0,-0.13 0,-0.17 0,-0.03 0,-0.03 0,-0.06l0.29 -0.19c-0.03,-0.17 -0.07,-0.33 -0.13,-0.46l-0.39 0c-0.03,-0.06 -0.06,-0.13 -0.1,-0.16l0.17 -0.32c-0.1,-0.13 -0.23,-0.26 -0.36,-0.33l-0.32 0.2c-0.07,-0.03 -0.13,-0.07 -0.2,-0.1l0 -0.39c-0.16,-0.03 -0.32,-0.06 -0.48,-0.09l-0.16 0.35c-0.07,0 -0.1,0 -0.16,0 -0.04,0 -0.04,0 -0.07,0l-0.19 -0.32c-0.16,0.03 -0.33,0.1 -0.46,0.16l0.04 0.36c-0.07,0.06 -0.13,0.09 -0.2,0.13l-0.32 -0.17c-0.13,0.1 -0.23,0.23 -0.32,0.36l0.19 0.32c-0.03,0.07 -0.06,0.13 -0.1,0.2l-0.35 0c-0.07,0.16 -0.1,0.32 -0.1,0.48l0.32 0.16c0,0.04 0,0.1 0,0.16 0,0 0,0.04 0,0.07l-0.29 0.19c0.04,0.16 0.07,0.33 0.13,0.46l0.39 -0.04c0.03,0.07 0.07,0.13 0.1,0.2l-0.16 0.32c0.09,0.13 0.22,0.23 0.35,0.32l0.32 -0.19c0.07,0.03 0.13,0.06 0.2,0.1l0 0.35c0.16,0.07 0.32,0.1 0.48,0.1l0.17 -0.32c0.06,0 0.09,0 0.16,0 0.03,0 0.03,0 0.06,0l0.2 0.29c0.16,-0.04 0.32,-0.07 0.45,-0.17l-0.03 -0.35c0.06,-0.03 0.12,-0.07 0.19,-0.13l0.32 0.19c0.13,-0.13 0.23,-0.22 0.33,-0.38l-0.2 -0.29c0.03,-0.07 0.07,-0.13 0.1,-0.2l0.35 0 0 0z"/>
  </g>
 </g>
</svg>
