<?xml version="1.0" encoding="UTF-8"?>
<!DOCTYPE svg PUBLIC "-//W3C//DTD SVG 1.1//EN" "http://www.w3.org/Graphics/SVG/1.1/DTD/svg11.dtd">
<!-- Creator: CorelDRAW -->
<svg xmlns="http://www.w3.org/2000/svg" xml:space="preserve" width="100px" height="100px" version="1.1" style="shape-rendering:geometricPrecision; text-rendering:geometricPrecision; image-rendering:optimizeQuality; fill-rule:evenodd; clip-rule:evenodd"
viewBox="0 0 19.38 19.38"
 xmlns:xlink="http://www.w3.org/1999/xlink"
 xmlns:xodm="http://www.corel.com/coreldraw/odm/2003">
 <defs>
  <style type="text/css">
   <![CDATA[
    .str0 {stroke:#F9D914;stroke-width:0.61;stroke-miterlimit:22.9256}
    .fil0 {fill:none}
    .fil1 {fill:#F9D914}
   ]]>
  </style>
 </defs>
 <g id="Слой_x0020_1">
  <metadata id="CorelCorpID_0Corel-Layer"/>
  <circle class="fil0 str0" cx="9.69" cy="9.69" r="9.39"/>
  <path class="fil1" d="M8.88 2.76l0 0c0.05,-0.05 0.05,-0.05 0.05,-0.05 0.05,0 0.05,0 0.05,0 0,-0.05 0,-0.05 0,-0.05 0,-0.05 0,-0.05 0,-0.1 0.05,0 0.05,-0.05 0.05,-0.1 0.1,-0.05 0.15,-0.16 0.26,-0.21 0.05,-0.05 0.15,-0.05 0.25,-0.05 0.1,0 0.2,0.05 0.25,0.05 0.1,0.05 0.15,0.16 0.2,0.21 0.05,0.1 0.1,0.2 0.1,0.3 -0.05,0.05 -0.05,0.15 -0.1,0.25 0,0.05 -0.05,0.1 -0.1,0.15 -0.05,0.1 -0.15,0.21 -0.15,0.31l0 0.5c0.2,0 0.3,0 0.45,0.05 0.36,0.2 0.61,0.61 0.81,0.96l0 0.05c0.05,0 0.1,0 0.1,0.05 0.05,0.05 0.11,0.1 0.16,0.15 0.45,0.21 0.96,0.31 1.46,0.46 0.35,0.15 0.66,0.2 0.86,0.35 0.2,0.1 0.4,0.26 0.56,0.51 0.3,0.4 0.55,0.76 0.8,1.21 0.1,0.15 0.21,0.3 0.31,0.45 0.25,0.31 0.3,0.46 0.5,0.76 -0.15,0.1 -0.25,0.26 -0.4,0.36 -0.15,0.1 -0.66,0.45 -1.06,0.75 -0.31,0.16 -0.51,0.31 -0.61,0.36 -0.05,0 -0.4,-0.41 -0.45,-0.46 -0.11,-0.15 -0.31,-0.55 -0.46,-0.55 -0.05,0 -0.05,0 -0.1,0.05 -0.05,0.15 -0.05,0.4 -0.1,0.55 -0.1,0.41 -0.15,0.76 -0.2,1.17 -0.15,1.76 0.5,3.68 0.55,5.5 -0.15,0.05 -0.25,0.15 -0.4,0.2 -1.37,0.31 -5,0.46 -6.37,-0.1 -0.15,-0.1 -0.3,-0.1 -0.25,-0.25 0.2,-0.91 0.25,-1.87 0.51,-2.78 0.4,-1.56 0.3,-2.02 0.2,-3.58 0,-0.21 0,-0.61 -0.1,-0.66 -0.1,-0.1 -0.71,0.6 -0.86,0.76 -0.71,-0.26 -1.47,-0.86 -2.02,-1.37 0.1,-0.15 0.2,-0.3 0.3,-0.45 0.2,-0.31 0.4,-0.61 0.61,-0.91 0.3,-0.46 0.55,-0.91 0.96,-1.32 0.2,-0.3 0.4,-0.3 0.75,-0.4 0.31,-0.1 0.76,-0.25 1.17,-0.4 0.35,-0.1 0.7,-0.21 0.91,-0.36l0.05 -0.1c0.2,-0.35 0.45,-0.76 0.86,-0.96 0.1,-0.05 0.2,-0.05 0.4,-0.05l0 0 0 -0.15 0 -0.35c0,-0.16 0.05,-0.26 0.15,-0.36 0,-0.05 0.05,-0.15 0.1,-0.2 0,-0.05 0.05,-0.1 0.05,-0.15 0,-0.1 0,-0.15 -0.05,-0.2 -0.05,-0.1 -0.1,-0.15 -0.15,-0.15 -0.05,-0.06 -0.15,-0.06 -0.2,-0.06 -0.05,0 -0.15,0 -0.2,0.06 -0.05,0 -0.1,0.05 -0.16,0.15 -0.05,0 -0.05,0.05 -0.05,0.05 0,0.05 0,0.05 -0.05,0.1 0,0 0,0 0,0 0,0.05 0,0.05 0,0.1 0,0 0,0 0,0 0,0.05 -0.05,0.1 -0.1,0.1 -0.05,0 -0.1,-0.05 -0.1,-0.1 0,-0.05 0,-0.05 0,-0.05l0 0 0 0zm0.81 2.27l0 0 0 0 0 0z"/>
 </g>
</svg>
