<?xml version="1.0" encoding="UTF-8"?>
<!DOCTYPE svg PUBLIC "-//W3C//DTD SVG 1.1//EN" "http://www.w3.org/Graphics/SVG/1.1/DTD/svg11.dtd">
<!-- Creator: CorelDRAW -->
<svg xmlns="http://www.w3.org/2000/svg" xml:space="preserve" width="100px" height="100px" version="1.1" style="shape-rendering:geometricPrecision; text-rendering:geometricPrecision; image-rendering:optimizeQuality; fill-rule:evenodd; clip-rule:evenodd"
viewBox="0 0 19.91 19.91"
 xmlns:xlink="http://www.w3.org/1999/xlink"
 xmlns:xodm="http://www.corel.com/coreldraw/odm/2003">
 <defs>
  <style type="text/css">
   <![CDATA[
    .str0 {stroke:#F9D914;stroke-width:0.62;stroke-miterlimit:22.9256}
    .fil0 {fill:none}
    .fil1 {fill:#F9D914;fill-rule:nonzero}
   ]]>
  </style>
 </defs>
 <g id="Слой_x0020_1">
  <metadata id="CorelCorpID_0Corel-Layer"/>
  <circle class="fil0 str0" cx="9.96" cy="9.96" r="9.65"/>
  <path class="fil1" d="M15.87 4.79l-11.83 0c-0.17,0 -0.31,0.15 -0.31,0.32l0 8.2c0,0.2 0.14,0.32 0.31,0.32l4.81 0 0 1.18 -1.24 0c-0.08,0 -0.14,0.05 -0.14,0.17 0,0.08 0.06,0.14 0.14,0.14l4.69 0c0.09,0 0.15,-0.06 0.15,-0.14 0,-0.12 -0.06,-0.17 -0.15,-0.17l-1.23 0 0 -1.18 4.8 0c0.17,0 0.32,-0.12 0.32,-0.32l0 -8.2c0,-0.17 -0.15,-0.32 -0.32,-0.32l0 0zm-5.08 8.15c0,0.05 -0.06,0.11 -0.15,0.11 -0.05,0 -0.11,-0.06 -0.11,-0.11 0,-0.06 0.06,-0.12 0.11,-0.12 0.09,0 0.15,0.06 0.15,0.12zm-1.47 0c0,0.05 -0.06,0.11 -0.14,0.11 -0.06,0 -0.12,-0.06 -0.12,-0.11 0,-0.06 0.06,-0.12 0.12,-0.12 0.08,0 0.14,0.06 0.14,0.12zm0.72 0c0,0.05 -0.06,0.11 -0.12,0.11 -0.08,0 -0.14,-0.06 -0.14,-0.11 0,-0.06 0.06,-0.12 0.14,-0.12 0.06,0 0.12,0.06 0.12,0.12zm4.59 0.02c0,0 0,0.03 -0.03,0.03l-0.43 0c-0.03,0 -0.03,-0.03 -0.03,-0.03l0 -0.05c0,0 0,-0.03 0.03,-0.03l0.43 0c0.03,0 0.03,0.03 0.03,0.03l0 0.05zm1.13 -0.8l-11.6 0 0 -6.94 11.6 0 0 6.94z"/>
 </g>
</svg>
