<?xml version="1.0" encoding="UTF-8"?>
<!DOCTYPE svg PUBLIC "-//W3C//DTD SVG 1.1//EN" "http://www.w3.org/Graphics/SVG/1.1/DTD/svg11.dtd">
<!-- Creator: CorelDRAW -->
<svg xmlns="http://www.w3.org/2000/svg" xml:space="preserve" width="100px" height="100px" version="1.1" style="shape-rendering:geometricPrecision; text-rendering:geometricPrecision; image-rendering:optimizeQuality; fill-rule:evenodd; clip-rule:evenodd"
viewBox="0 0 17.89 17.89"
 xmlns:xlink="http://www.w3.org/1999/xlink"
 xmlns:xodm="http://www.corel.com/coreldraw/odm/2003">
 <defs>
  <style type="text/css">
   <![CDATA[
    .str0 {stroke:#F9D914;stroke-width:0.56;stroke-miterlimit:22.9256}
    .fil0 {fill:none}
    .fil1 {fill:#F9D914}
   ]]>
  </style>
 </defs>
 <g id="Слой_x0020_1">
  <metadata id="CorelCorpID_0Corel-Layer"/>
  <circle class="fil0 str0" cx="8.95" cy="8.95" r="8.67"/>
  <path class="fil1" d="M12.98 6.87l1.43 0.07c0.25,-2.76 0.39,-2.44 -1.81,-2.51 0.24,0.41 0.42,0.48 0.42,1.11 0,0.42 -0.11,0.88 -0.04,1.33l0 0zm-7.71 2.79c0,-0.52 0.31,-0.94 0.45,-1.36 -0.35,-0.14 -0.62,-0.11 -0.83,-0.45 -0.25,-0.35 -0.11,-0.7 -0.14,-1.16l-1.05 -0.03c-0.07,0.77 -0.56,6.49 -0.21,6.77 0.38,0.17 9.7,0.63 9.98,0.52 0.24,-0.17 0.21,-0.28 0.24,-0.7 0.04,-1.25 0.35,-5.51 0.25,-6.03l-1.01 -0.04c-0.07,1.47 -0.39,1.22 -1.12,1.47 0.1,0.49 0.31,0.8 0.31,1.39 -0.38,0 -0.83,-0.38 -1.18,-0.52 -0.18,0.21 -0.28,0.56 -0.42,0.8 -0.38,0.74 -0.28,0.6 -0.56,0.67 -0.14,-0.49 -0.14,-1.26 -0.28,-1.89 -0.1,-0.38 -0.31,-1.18 -0.49,-1.53 -0.56,0.17 -0.21,0.21 -0.76,-0.04 -0.77,0.94 -0.98,3.04 -1.23,3.32 -0.34,-0.25 -0.55,-1.15 -0.69,-1.57 -0.46,0.1 -0.81,0.45 -1.26,0.38l0 0zm1.85 0.38c0.17,-0.31 0.42,-1.22 0.56,-1.64 0.14,-0.31 0.77,-1.32 0.21,-1.18 -0.11,0.03 -0.91,0.66 -1.36,0.84 -0.53,0.2 -0.74,0.62 -0.88,1.22l1.09 -0.39c0.07,0.32 0.2,0.91 0.38,1.15l0 0zm3.73 -1.85c-0.69,-0.41 -0.9,-0.9 -1.29,-0.9 -0.14,0.24 0.25,1.04 0.35,1.46 0.07,0.32 0.25,1.33 0.31,1.54 0.18,-0.32 0.42,-0.94 0.56,-1.19 0.39,0.11 0.63,0.39 1.02,0.53 -0.04,-0.28 -0.18,-0.67 -0.28,-0.95 -0.18,-0.35 -0.28,-0.24 -0.67,-0.49l0 0zm-0.35 -2.86c0.18,0.84 0.04,1.29 -0.52,1.64 0.14,0.28 2.55,2.86 2.69,0.11 0,-0.53 0.24,-1.96 -0.18,-2.24 -0.63,-0.41 -1.6,0.32 -1.99,0.49l0 0zm-1.53 0.32c-0.39,-0.14 -0.28,-0.53 -0.87,-0.49 -0.39,0.03 -0.63,0.35 -0.6,0.8 0.04,0.39 0.32,0.63 0.53,0.84 0.14,0.14 0.59,0.56 0.76,0.56 0.67,0.1 2.34,-1.71 1.09,-2.1 -0.53,-0.14 -0.67,0.18 -0.91,0.39l0 0zm-1.33 1.36c-0.1,-0.77 -0.7,-0.39 -0.24,-1.82 -0.39,-0.28 -1.01,-0.9 -1.75,-0.8 -0.73,0.11 -0.55,1.33 -0.59,1.99 -0.03,0.91 -0.21,1.74 0.94,1.57 0.6,-0.1 1.29,-0.59 1.64,-0.94l0 0zm-4.25 -0.66l1.39 0.07c0.04,-0.46 0.04,-1.05 0.07,-1.47 0.07,-0.56 0.35,-0.63 0.66,-0.91 -0.52,-0.03 -1.85,-0.31 -2.05,0.14 -0.11,0.28 -0.14,1.89 -0.07,2.17zm5.58 -1.12c0.94,-0.59 1.08,0.03 1.43,-0.14l1.29 -0.7 -5.3 -0.31c0.03,0.03 0.03,0.03 0.07,0.07l1.08 0.8c0.42,0.14 0.38,-0.35 1.43,0.28l0 0z"/>
 </g>
</svg>
