<?xml version="1.0" encoding="UTF-8"?>
<!DOCTYPE svg PUBLIC "-//W3C//DTD SVG 1.1//EN" "http://www.w3.org/Graphics/SVG/1.1/DTD/svg11.dtd">
<!-- Creator: CorelDRAW -->
<svg xmlns="http://www.w3.org/2000/svg" xml:space="preserve" width="100px" height="100px" version="1.1" style="shape-rendering:geometricPrecision; text-rendering:geometricPrecision; image-rendering:optimizeQuality; fill-rule:evenodd; clip-rule:evenodd"
viewBox="0 0 16.29 16.29"
 xmlns:xlink="http://www.w3.org/1999/xlink"
 xmlns:xodm="http://www.corel.com/coreldraw/odm/2003">
 <defs>
  <style type="text/css">
   <![CDATA[
    .str0 {stroke:#F9D914;stroke-width:0.51;stroke-miterlimit:22.9256}
    .fil1 {fill:none}
    .fil0 {fill:#F9D914}
   ]]>
  </style>
 </defs>
 <g id="Слой_x0020_1">
  <metadata id="CorelCorpID_0Corel-Layer"/>
  <path class="fil0" d="M8.17 4.5c0.27,-0.82 1.39,-1.33 2.29,-1.26 2.35,0.22 3.4,3.06 2.4,4.98 -0.53,1.02 -1.31,1.92 -2.16,2.72 -0.7,0.68 -2.53,2.12 -2.53,2.12 -0.02,0 -1.84,-1.44 -2.55,-2.12 -0.82,-0.8 -1.6,-1.7 -2.14,-2.72 -1.02,-1.92 -0.22,-4.76 2.14,-4.96 0.9,-0.09 2.29,0.42 2.55,1.24zm4.18 3.14c-0.61,0.02 -1.24,0.05 -1.84,0.05 -0.22,-0.88 -0.44,-1.75 -0.68,-2.63 -0.03,-0.12 -0.2,-0.12 -0.25,0 -0.46,1.53 -0.95,3.06 -1.43,4.57 -0.03,0.1 -0.05,0.19 -0.07,0.27 -0.34,-1 -0.66,-2 -0.98,-3.02 -0.04,-0.14 -0.12,-0.31 -0.17,-0.46 -0.02,-0.1 -0.17,-0.14 -0.21,-0.05 -0.25,0.49 -0.49,0.98 -0.71,1.46 -0.7,0 -1.38,0 -2.09,0 -0.14,0 -0.14,0.27 0,0.27 0.73,0 1.43,0 2.16,0 0.05,0 0.1,-0.03 0.1,-0.07 0.22,-0.42 0.41,-0.83 0.61,-1.24 0.34,1.02 0.68,2.06 1.02,3.08 0.05,0.17 0.1,0.32 0.14,0.49 0.05,0.12 0.2,0.12 0.25,0 0.48,-1.53 0.94,-3.06 1.43,-4.57 0.03,-0.07 0.05,-0.15 0.07,-0.22 0.2,0.75 0.39,1.53 0.59,2.29 0,0.04 0.07,0.09 0.12,0.09 0.65,-0.02 1.29,-0.02 1.94,-0.05 0.17,0 0.17,-0.26 0,-0.26l0 0z"/>
  <path class="fil1 str0" d="M16.03 8.14c0,-4.35 -3.53,-7.89 -7.89,-7.89 -4.35,0 -7.89,3.54 -7.89,7.89 0,4.36 3.54,7.89 7.89,7.89 4.36,0 7.89,-3.53 7.89,-7.89z"/>
 </g>
</svg>
