<?xml version="1.0" encoding="UTF-8"?>
<!DOCTYPE svg PUBLIC "-//W3C//DTD SVG 1.1//EN" "http://www.w3.org/Graphics/SVG/1.1/DTD/svg11.dtd">
<!-- Creator: CorelDRAW -->
<svg xmlns="http://www.w3.org/2000/svg" xml:space="preserve" width="100px" height="100px" version="1.1" style="shape-rendering:geometricPrecision; text-rendering:geometricPrecision; image-rendering:optimizeQuality; fill-rule:evenodd; clip-rule:evenodd"
viewBox="0 0 17.48 17.48"
 xmlns:xlink="http://www.w3.org/1999/xlink"
 xmlns:xodm="http://www.corel.com/coreldraw/odm/2003">
 <defs>
  <style type="text/css">
   <![CDATA[
    .str0 {stroke:#F9D914;stroke-width:0.55;stroke-miterlimit:22.9256}
    .fil0 {fill:none}
    .fil1 {fill:#F9D914;fill-rule:nonzero}
   ]]>
  </style>
 </defs>
 <g id="Слой_x0020_1">
  <metadata id="CorelCorpID_0Corel-Layer"/>
  <circle class="fil0 str0" cx="8.74" cy="8.74" r="8.47"/>
  <path class="fil1" d="M9.95 11.97c-0.29,0.33 -0.48,0.82 -0.48,1.3 0,1.09 0.9,1.98 1.98,1.98 1.08,0 1.98,-0.89 1.98,-1.98 0,-1.04 -0.82,-1.9 -1.83,-1.97 1.19,-0.75 1.98,-1.95 2.09,-3.29 0.3,-0.04 0.52,-0.26 0.52,-0.56 0,-0.19 -0.07,-0.37 -0.22,-0.48 0.03,-0.3 0,-0.79 -0.12,-1.42 -0.29,-1.79 -1.71,-2.17 -1.71,-2.17 -0.82,-1.12 -2.24,-0.48 -2.24,-0.48 -0.86,-1.27 -2.06,-0.34 -2.06,-0.34l1.68 4.33 -5.71 0c-0.3,0 -0.56,0.23 -0.56,0.56 0,0.22 0.11,0.41 0.3,0.49 0.11,1.38 0.93,2.61 2.17,3.39 -0.97,0.12 -1.72,0.94 -1.72,1.94 0,1.09 0.86,1.98 1.98,1.98 1.08,0 1.98,-0.89 1.98,-1.98 0,-0.48 -0.19,-0.93 -0.45,-1.26 0.33,0.07 0.71,0.11 1.12,0.11 0.45,0 0.89,-0.04 1.3,-0.15l0 0zm-3.95 2.69c-0.79,0 -1.38,-0.64 -1.38,-1.39 0,-0.74 0.59,-1.38 1.38,-1.38 0.74,0 1.34,0.64 1.34,1.38 0,0.75 -0.6,1.39 -1.34,1.39zm5.45 0c-0.75,0 -1.35,-0.64 -1.35,-1.39 0,-0.74 0.6,-1.38 1.35,-1.38 0.74,0 1.38,0.64 1.38,1.38 0,0.75 -0.64,1.39 -1.38,1.39z"/>
 </g>
</svg>
