<?xml version="1.0" encoding="UTF-8"?>
<!DOCTYPE svg PUBLIC "-//W3C//DTD SVG 1.1//EN" "http://www.w3.org/Graphics/SVG/1.1/DTD/svg11.dtd">
<!-- Creator: CorelDRAW -->
<svg xmlns="http://www.w3.org/2000/svg" xml:space="preserve" width="100px" height="100px" version="1.1" style="shape-rendering:geometricPrecision; text-rendering:geometricPrecision; image-rendering:optimizeQuality; fill-rule:evenodd; clip-rule:evenodd"
viewBox="0 0 20.06 20.06"
 xmlns:xlink="http://www.w3.org/1999/xlink"
 xmlns:xodm="http://www.corel.com/coreldraw/odm/2003">
 <defs>
  <style type="text/css">
   <![CDATA[
    .str0 {stroke:#F9D914;stroke-width:0.63;stroke-miterlimit:22.9256}
    .fil0 {fill:none}
    .fil1 {fill:#F9D914}
   ]]>
  </style>
 </defs>
 <g id="Слой_x0020_1">
  <metadata id="CorelCorpID_0Corel-Layer"/>
  <circle class="fil0 str0" cx="10.03" cy="10.03" r="9.71"/>
  <path class="fil1" d="M13.37 9.52c-0.25,-1.08 -0.54,-0.98 0.18,-1.71 4.93,-4.81 2.23,-4.95 -0.37,-2.38 -0.41,0.41 -0.76,0.76 -1.17,1.19 -0.51,0.54 -0.71,0.22 -1.57,0 0.3,-0.6 -0.08,-0.78 -0.51,-1.11 -0.46,0.16 -0.57,0.57 -0.9,0.65 -0.19,0.06 -0.89,-0.19 -1.16,-0.24 0.14,-0.47 0.16,-0.19 0.21,-0.68 -1.97,-1.74 -0.16,0.71 -2.59,-0.03 -0.54,-0.16 -0.74,-0.3 -1.14,0 -0.25,0.19 -0.52,0.46 -0.59,0.79 1.08,1.05 4.19,1.48 5.49,3.3 -0.27,0.41 -0.65,0.7 -1.01,1.08 -0.29,0.33 -0.67,0.87 -0.97,1.14 -1.1,-0.27 -1.95,-1.3 -2.52,0.03 0.2,0.27 1.39,1 1.74,1.19 0.08,0.86 -0.3,0.79 0.73,0.76l1.22 1.76c1.38,-0.49 0.27,-1.66 0.02,-2.54 1.09,-0.77 1.66,-1.6 2.2,-1.96 0.86,0.41 1.35,1.55 1.9,2.63l1.05 2.25c0.16,0.38 0.16,0.46 0.46,0.65 0.33,-0.19 0.71,-0.6 0.94,-0.92l-0.43 -1.79c0.27,-0.38 0.63,-0.54 0.76,-0.97 -0.13,-0.33 -0.38,-0.49 -0.62,-0.71 -0.46,0.08 -0.22,0.14 -0.59,0.27l-0.33 -1.16c0.27,-0.33 0.51,-0.47 0.71,-0.84 -0.36,-0.92 -0.92,-0.68 -1.14,-0.65l0 0 0 0z"/>
 </g>
</svg>
