<?xml version="1.0" encoding="UTF-8"?>
<!DOCTYPE svg PUBLIC "-//W3C//DTD SVG 1.1//EN" "http://www.w3.org/Graphics/SVG/1.1/DTD/svg11.dtd">
<!-- Creator: CorelDRAW -->
<svg xmlns="http://www.w3.org/2000/svg" xml:space="preserve" width="100px" height="100px" version="1.1" style="shape-rendering:geometricPrecision; text-rendering:geometricPrecision; image-rendering:optimizeQuality; fill-rule:evenodd; clip-rule:evenodd"
viewBox="0 0 17.17 17.17"
 xmlns:xlink="http://www.w3.org/1999/xlink"
 xmlns:xodm="http://www.corel.com/coreldraw/odm/2003">
 <defs>
  <style type="text/css">
   <![CDATA[
    .str0 {stroke:#F9D914;stroke-width:0.54;stroke-miterlimit:22.9256}
    .fil0 {fill:none}
    .fil1 {fill:#F9D914;fill-rule:nonzero}
   ]]>
  </style>
 </defs>
 <g id="Слой_x0020_1">
  <metadata id="CorelCorpID_0Corel-Layer"/>
  <circle class="fil0 str0" cx="8.58" cy="8.58" r="8.32"/>
  <g id="_1463344501184">
   <path class="fil1" d="M9.67 2.69c-1.29,-2.42 -2.34,0.45 -2.42,0.73 -0.08,0.32 -0.76,1.93 0.57,3.06 0,0 0.52,0.25 0.48,1.66 -0.04,1.37 -0.44,7.1 -0.44,7.1 0,0 0.6,0.48 1.25,0 0,0 -0.37,-6.5 -0.37,-7.06 0,-0.53 -0.12,-1.29 0.57,-1.7 0.08,-0.04 1.61,-1.37 0.36,-3.79l0 0z"/>
   <path class="fil1" d="M10.64 5.52l2.42 -1.7c0,0 0.12,0.04 0.08,0.12l-1.97 1.7c0,0 -0.13,0.08 -0.05,0.16 0.09,0.12 0.13,0 0.17,0 0,-0.04 2.05,-1.62 2.05,-1.62 0,0 0.13,-0.04 0.08,0.09l-1.93 1.69c0,0 -0.12,0.08 -0.04,0.2 0,0 0.08,0.04 0.2,-0.08 0.12,-0.12 1.94,-1.61 1.94,-1.61 0,0 0.12,0 0.08,0.08l-1.86 1.77c0,0 -0.12,0.08 -0.04,0.21 0.08,0.08 0.16,-0.05 0.2,-0.05 0.04,-0.04 1.9,-1.69 1.9,-1.69 0,0 0.12,0 0.08,0.08l-1.57 1.7c0,0 -0.81,0.84 -1.34,1 -0.08,0.04 -0.44,0.04 -0.48,0.04 -0.4,-0.04 -0.73,0.13 -0.89,0.29 -0.2,0.16 -5.69,5.44 -5.69,5.44 -0.72,-0.24 -0.76,-0.92 -0.76,-0.92 0,0 5.56,-4 6.17,-4.85 0,0 0.36,-0.36 0.4,-1 0,0 0.21,-0.69 0.85,-1.05l0 0z"/>
   <path class="fil1" d="M7.49 7.29l-3.79 -3.27c0,0 -0.36,-0.12 -0.36,0.45 0,0.56 0.72,2.05 3.91,3.79 0,0 4.96,4.03 5.77,4.88 0,0 0.77,-0.24 0.81,-1.01 0,0 -5.37,-3.63 -6.01,-4.48 -0.08,-0.08 -0.33,-0.36 -0.33,-0.36l0 0z"/>
  </g>
 </g>
</svg>
