<?xml version="1.0" encoding="UTF-8"?>
<!DOCTYPE svg PUBLIC "-//W3C//DTD SVG 1.1//EN" "http://www.w3.org/Graphics/SVG/1.1/DTD/svg11.dtd">
<!-- Creator: CorelDRAW -->
<svg xmlns="http://www.w3.org/2000/svg" xml:space="preserve" width="100px" height="100px" version="1.1" style="shape-rendering:geometricPrecision; text-rendering:geometricPrecision; image-rendering:optimizeQuality; fill-rule:evenodd; clip-rule:evenodd"
viewBox="0 0 22.21 22.21"
 xmlns:xlink="http://www.w3.org/1999/xlink"
 xmlns:xodm="http://www.corel.com/coreldraw/odm/2003">
 <defs>
  <style type="text/css">
   <![CDATA[
    .str0 {stroke:#F9D914;stroke-width:0.7;stroke-miterlimit:22.9256}
    .fil0 {fill:none}
    .fil2 {fill:#F9D914}
    .fil1 {fill:#F9D914;fill-rule:nonzero}
   ]]>
  </style>
 </defs>
 <g id="Слой_x0020_1">
  <metadata id="CorelCorpID_0Corel-Layer"/>
  <circle class="fil0 str0" cx="11.1" cy="11.1" r="10.75"/>
  <path class="fil1" d="M4.15 11.24l0.43 0.75 6.52 -3.75 6.49 3.75 0.45 -0.75 -4.06 -2.34c0,-0.32 0.04,-0.66 0.08,-0.97 0.03,-0.21 0.17,-0.69 0.24,-0.82 0.1,0 0.24,0.03 0.34,0.03 1.27,0.04 1.81,-0.99 1.96,-2.16 0,-0.14 0.04,-0.62 -0.04,-0.69 -0.07,-0.14 -0.17,0.03 -0.2,0.07 -0.34,0.2 -1.79,0.24 -2.21,1.16 -0.17,0.39 -0.17,0.84 -0.06,1.27 0.03,0.18 0.06,0.11 0,0.32 -0.03,0.07 -0.07,0.17 -0.11,0.28l-0.13 0.58c-0.07,-0.25 -0.11,-0.21 -0.07,-0.38 0.07,-0.35 0.07,-0.86 -0.21,-1.1 -0.2,-0.17 -0.34,-0.28 -0.61,-0.34 -0.14,-0.04 -0.66,-0.18 -0.73,-0.24 -0.03,-0.04 -0.06,-0.11 -0.17,-0.04 -0.04,0.04 -0.04,0.13 -0.04,0.21 0,0.41 0.11,0.82 0.28,1.16 0.11,0.21 0.28,0.39 0.49,0.48 0.3,0.17 0.54,0.11 0.78,0.11 0.11,0.34 0.17,0.48 0.21,0.86 0,0.03 0,0.06 0,0.1l-2.68 -1.55 -6.95 4 0 0zm8.84 -4.27c-0.03,0.1 0.04,0.14 0.1,0.17 0.14,0.1 0.35,0.34 0.41,0.49 -0.51,0.02 -0.75,-0.11 -0.96,-0.39 -0.17,-0.24 -0.31,-0.71 -0.31,-1.09 0.11,0.02 0.18,0.06 0.28,0.06 0.24,0.07 0.52,0.15 0.72,0.28 0.38,0.2 0.42,0.51 0.38,0.93 -0.04,-0.04 -0.11,-0.14 -0.13,-0.18 -0.08,-0.1 -0.43,-0.45 -0.49,-0.27l0 0zm1.27 -0.31c-0.03,-0.07 -0.03,-0.34 -0.03,-0.49 0,-0.47 0.17,-0.82 0.54,-1.06 0.21,-0.13 0.49,-0.23 0.8,-0.3 0.24,-0.08 0.62,-0.15 0.82,-0.25 0.04,0.21 -0.07,0.79 -0.1,0.96 -0.14,0.56 -0.45,1.07 -0.96,1.31 -0.21,0.07 -0.76,0.17 -0.93,0.07 0.03,-0.11 0.11,-0.21 0.17,-0.31 0.07,-0.06 0.1,-0.14 0.18,-0.23 0.23,-0.28 0.51,-0.32 0.43,-0.45 -0.06,-0.15 -0.23,0.02 -0.3,0.06 -0.24,0.18 -0.45,0.41 -0.62,0.69l0 0z"/>
  <path class="fil2" d="M12.27 17.97l-6.53 0 0 -5.92 5.29 -3.05 5.33 3.05 0 5.92 -1.76 0 0 -4.13 -2.33 0 0 4.13zm-4.46 -2.04l2.65 0 0 -2.09 -2.65 0 0 2.09z"/>
 </g>
</svg>
