<?xml version="1.0" encoding="UTF-8"?>
<!DOCTYPE svg PUBLIC "-//W3C//DTD SVG 1.1//EN" "http://www.w3.org/Graphics/SVG/1.1/DTD/svg11.dtd">
<!-- Creator: CorelDRAW -->
<svg xmlns="http://www.w3.org/2000/svg" xml:space="preserve" width="100px" height="100px" version="1.1" style="shape-rendering:geometricPrecision; text-rendering:geometricPrecision; image-rendering:optimizeQuality; fill-rule:evenodd; clip-rule:evenodd"
viewBox="0 0 20.95 20.95"
 xmlns:xlink="http://www.w3.org/1999/xlink"
 xmlns:xodm="http://www.corel.com/coreldraw/odm/2003">
 <defs>
  <style type="text/css">
   <![CDATA[
    .str0 {stroke:#F9D914;stroke-width:0.65;stroke-miterlimit:22.9256}
    .fil0 {fill:none}
    .fil1 {fill:#F9D914;fill-rule:nonzero}
   ]]>
  </style>
 </defs>
 <g id="Слой_x0020_1">
  <metadata id="CorelCorpID_0Corel-Layer"/>
  <circle class="fil0 str0" cx="10.47" cy="10.47" r="10.15"/>
  <path class="fil1" d="M16.76 17.71c-0.09,0 -0.88,0 -0.94,0 -0.07,-0.04 -0.27,-0.07 -0.27,-0.07 0,0 -0.19,-0.68 -0.26,-0.95 -0.06,-0.29 -0.19,-1.2 -0.29,-1.43 -0.1,-0.2 -0.23,-0.56 -0.23,-0.56 0,0 0,-0.32 -0.03,-0.49 -0.03,-0.13 -0.3,-0.39 -0.33,-0.49 -0.03,-0.06 -0.32,-0.94 -0.42,-1.11 -0.07,-0.16 -0.52,-1.01 -0.56,-1.17 0,-0.13 -0.13,-0.36 -0.13,-0.36l-0.13 -0.13 0.13 -0.33c0,0 0.1,-0.1 0.1,-0.16 0,-0.1 0.03,-0.43 0.03,-0.43 0,0 0.2,-0.39 0.17,-0.62 0,-0.22 -0.04,-1.17 -0.04,-1.3 0,-0.1 -0.03,-0.59 -0.16,-0.95 -0.13,-0.36 -0.36,-0.98 -0.36,-0.98 0,0 0.1,-0.26 0.13,-0.32 0,-0.07 -0.03,-0.3 -0.03,-0.33 0,-0.07 0.03,-0.49 0,-0.59 -0.03,-0.13 -0.1,-0.29 -0.1,-0.29 0,0 0.07,-0.62 0.1,-0.88 0,-0.27 0.13,-0.98 0.16,-1.02 0,-0.03 0.17,-0.09 0.2,-0.19 0.06,-0.07 0.1,-0.17 0.19,-0.23 0.07,-0.07 0.26,-0.23 0.26,-0.26 0.04,-0.03 0,-0.13 0,-0.13 0,0 -0.35,0.23 -0.42,0.19 -0.06,0 -0.1,-0.03 -0.1,-0.03 0,0 0.26,-0.1 0.26,-0.16 0,-0.04 0,-0.07 0,-0.07l-0.16 0.03c0,0 0.2,-0.16 0.16,-0.19 0,-0.03 -0.09,-0.07 -0.09,-0.07l-0.2 0.13c0,0 0.13,-0.19 0.16,-0.26 0.04,-0.03 -0.03,-0.1 -0.03,-0.1 0,0 -0.23,0.2 -0.23,0.23 -0.03,0 -0.1,0.23 -0.1,0.26 -0.03,0 -0.16,0.36 -0.19,0.53 -0.03,0.16 -0.1,0.26 -0.1,0.36 0,0.09 -0.03,0.22 -0.13,0.55 -0.13,0.29 -0.33,0.78 -0.33,0.95 -0.09,0 -0.16,0 -0.16,0 0,0 -0.42,0.03 -0.62,0.29 -0.16,0.26 -0.2,0.49 -0.2,0.49l0.07 0.33c0,0 -0.07,0.06 -0.03,0.19 0,0.1 0.09,0.3 0.16,0.33 0.03,0.03 0.07,0.03 0.07,0.03 0,0 -0.07,0.23 -0.14,0.26 -0.06,0 -0.19,0 -0.19,0 0,0 -0.16,-0.03 -0.3,0.1 -0.13,0.1 -0.19,0.26 -0.19,0.26l-0.88 0.62 -0.56 0.33 0.07 0.07c0,0 -0.75,0.39 -0.85,0.45 -0.13,0.07 -0.46,0.1 -0.92,0.39 -0.49,0.3 -0.65,0.4 -0.65,0.4 0,0 -0.39,-0.04 -0.46,-0.04 -0.03,0 -0.22,0.07 -0.26,0.1 -0.03,0 -0.09,0.07 -0.09,0.07 0,0 -0.14,0 -0.17,0.03 -0.03,0 -0.06,0.06 -0.06,0.06 0,0 -0.13,0.04 -0.13,0.07 -0.04,0.03 -0.13,0.26 -0.13,0.29 0.03,0 0.09,0.04 0.09,0.04l0.07 -0.04c0,0 0.1,0 0.1,-0.03 0.03,-0.03 0.06,-0.1 0.06,-0.1l0.1 0c0,0 0.16,0.07 0.33,0.04 0.16,0 0.29,0.06 0.42,0.03 0.13,-0.03 0.2,-0.16 0.2,-0.16 0,0 0.81,-0.23 1.01,-0.23 0.19,-0.04 0.52,-0.1 0.62,-0.17 0.1,-0.09 0.52,-0.36 0.65,-0.42 0.17,-0.07 0.39,-0.16 0.39,-0.16 0,0 0.17,0.16 0.23,0.13 0.1,-0.04 0.26,-0.23 0.36,-0.3 0.1,-0.03 0.33,-0.06 0.33,-0.06 0,0 0.03,0.23 0.16,0.36 0.1,0.09 0,0.22 0.13,0.29 0.1,0.1 0.03,0.36 0.13,0.36 0.1,0 -0.13,0.13 -0.06,0.2 0.06,0.03 0,0.26 -0.17,0.35 -0.16,0.1 -0.42,0.3 -0.49,0.53 -0.03,0.23 -0.16,0.55 -0.26,0.62 -0.13,0.09 -0.32,0.26 -0.29,0.32 0,0.07 -0.23,0.17 -0.36,0.3 -0.13,0.16 -0.52,0.52 -0.62,0.62 -0.1,0.13 -0.69,0.68 -0.69,0.68l-0.19 0c0,0 -0.13,-0.26 -0.33,-0.45 -0.23,-0.17 -0.88,-0.33 -0.98,-0.36 -0.13,-0.04 -0.59,-0.26 -0.59,-0.26 0,0 0.04,-0.27 0.04,-0.3 0.03,-0.03 -0.04,-0.23 -0.07,-0.26 -0.06,-0.03 -0.26,-0.06 -0.26,-0.06 0,0 0,-0.1 -0.06,-0.1 -0.04,0.03 -0.1,0.1 -0.1,0.1l-0.17 0.06c0,0 -0.45,0.03 -0.65,0 -0.19,0 -0.19,-0.1 -0.19,-0.1 0,0 -0.07,0 -0.1,0.04 -0.04,0.03 -0.04,0.06 -0.04,0.06l-0.26 0.03c0,0 -0.03,-0.06 -0.06,-0.03 -0.03,0 -0.07,0.1 -0.07,0.1 0,0 -0.19,0.13 -0.23,0.23 -0.06,0.06 -0.06,0.19 0.07,0.29 0.13,0.07 0.52,0.03 0.75,0.1 0.2,0.06 0.1,0.2 0.2,0.23 0.09,0.03 0.26,-0.03 0.26,-0.03 0,0 0.29,0.16 0.36,0.16 0.06,0 0.06,0.1 0.13,0.1 0.03,0.03 0.39,0.19 0.49,0.29 0.06,0.1 0.49,0.46 0.75,0.65 0.26,0.23 0.55,0.26 0.55,0.26 0,0 0.39,0.33 0.56,0.36 0.16,0 0.55,-0.06 0.55,-0.06 0,0 0.95,-0.49 1.21,-0.59 0.26,-0.13 0.52,-0.23 0.52,-0.23 0,0 0.2,0.23 0.3,0.16 0.1,-0.09 0.75,-0.45 0.75,-0.45 0,0 0.26,0.42 0.39,0.52 0.13,0.07 0.07,0.23 0.2,0.29 0.16,0.07 0.39,0.17 0.39,0.17l0.16 -0.07c0,0 0.26,0.3 0.56,0.52 0.29,0.23 0.49,0.62 0.58,0.66 0.07,0.06 0.17,0.16 0.17,0.32 0,0.13 0.06,0.66 0.13,0.95 0.03,0.29 0.59,1.44 0.68,1.63 0.1,0.17 0.1,0.59 0.2,0.69 0.06,0.1 0.13,0.55 0.13,0.65 0.03,0.1 0.29,0.23 0.39,0.23 0.07,0.03 0.16,0 0.16,0l0.1 -0.03 0 -0.13c0,0 0.13,0.06 0.17,0.03 0.03,-0.03 0,-0.16 0,-0.16 0,0 0.62,-0.43 0.75,-0.46 0.13,-0.07 0.42,-0.29 0.45,-0.39 0.04,-0.1 -0.13,-0.23 -0.26,-0.26l0 0zm-3.33 -0.53c-0.65,0 -1.17,0.53 -1.17,1.18 0,0.65 0.52,1.17 1.17,1.17 0.66,0 1.18,-0.52 1.18,-1.17 0,-0.65 -0.52,-1.18 -1.18,-1.18z"/>
 </g>
</svg>
