<?xml version="1.0" encoding="UTF-8"?>
<!DOCTYPE svg PUBLIC "-//W3C//DTD SVG 1.1//EN" "http://www.w3.org/Graphics/SVG/1.1/DTD/svg11.dtd">
<!-- Creator: CorelDRAW -->
<svg xmlns="http://www.w3.org/2000/svg" xml:space="preserve" width="100px" height="100px" version="1.1" style="shape-rendering:geometricPrecision; text-rendering:geometricPrecision; image-rendering:optimizeQuality; fill-rule:evenodd; clip-rule:evenodd"
viewBox="0 0 20.54 20.54"
 xmlns:xlink="http://www.w3.org/1999/xlink"
 xmlns:xodm="http://www.corel.com/coreldraw/odm/2003">
 <defs>
  <style type="text/css">
   <![CDATA[
    .str0 {stroke:#F9D914;stroke-width:0.65;stroke-miterlimit:22.9256}
    .fil0 {fill:none}
    .fil1 {fill:#F9D914}
   ]]>
  </style>
 </defs>
 <g id="Слой_x0020_1">
  <metadata id="CorelCorpID_0Corel-Layer"/>
  <circle class="fil0 str0" cx="10.27" cy="10.27" r="9.95"/>
  <path class="fil1" d="M5.65 15.36c0.1,1.12 1.08,2.1 2.31,1.96 1.3,-0.13 1.72,-1.5 3.09,-0.7 0.45,0.25 0.8,0.6 1.43,0.7 0.71,0.1 1.26,-0.17 1.65,-0.49 0.77,-0.67 1.12,-2.17 0.25,-3.02 -0.11,-0.11 -0.18,-0.14 -0.29,-0.25 -0.28,-0.23 -0.73,-0.45 -0.94,-0.66 -0.81,-0.76 -1.19,-1.89 -2.01,-2.31 -0.52,-0.32 -1.19,-0.32 -1.71,-0.04 -0.67,0.32 -1.08,1.16 -1.51,1.73 -0.69,0.98 -1.12,0.87 -1.72,1.5 -0.38,0.35 -0.63,0.84 -0.55,1.58l0 0 0 0zm-1.02 -8.98c-0.07,0.03 -0.03,0 -0.07,0.03l-0.04 0.25c-0.14,0.91 0.59,0.98 0.35,0.18 -0.03,-0.07 -0.06,-0.14 -0.1,-0.22 -0.03,-0.1 -0.07,-0.17 -0.14,-0.24l0 0zm11.29 0c-0.14,0.1 -0.49,0.92 -0.21,1.01 0.21,0.04 0.28,-0.2 0.32,-0.38 0,-0.14 0.03,-0.53 -0.11,-0.63zm-3.64 -3.19c-0.07,0.07 -0.07,0.14 -0.11,0.25 -0.03,0.1 -0.03,0.23 -0.07,0.34 -0.04,0.21 -0.04,0.6 0.24,0.53 0.31,-0.03 0.17,-1.01 -0.06,-1.12l0 0 0 0zm-4.04 0c-0.14,0.07 -0.21,0.39 -0.21,0.52 -0.04,0.21 -0.07,0.57 0.18,0.6 0.24,0.07 0.24,-0.28 0.21,-0.53l-0.11 -0.45c-0.03,-0.1 0,-0.07 -0.07,-0.14zm-4.39 7.05c0.14,0.8 0.89,1.86 1.8,1.72 0.48,-0.11 0.8,-0.46 0.94,-0.85 0.21,-0.52 0.11,-1.02 -0.04,-1.5 -0.24,-0.74 -0.87,-2.01 -1.65,-1.9 -0.77,0.14 -1.15,1.62 -1.05,2.53l0 0 0 0zm12.8 0.03c0.15,-0.87 -0.24,-2.38 -0.97,-2.56 -0.82,-0.18 -1.44,1.16 -1.69,1.86 -0.14,0.42 -0.29,0.98 -0.07,1.5 0.53,1.51 2.42,0.96 2.73,-0.8l0 0 0 0zm-9.99 -2.63c0.11,0.98 0.91,2.17 2.03,1.86 0.46,-0.14 0.81,-0.53 0.99,-1.01 0.17,-0.53 0.11,-1.19 0,-1.72 -0.11,-0.53 -0.28,-1.09 -0.57,-1.48 -1.12,-1.71 -2.59,0.84 -2.45,2.35l0 0zm7.19 0.03c0.14,-1.12 -0.52,-2.38 -1.12,-2.8 -1.37,-0.91 -2.32,2.32 -1.89,3.58 0.17,0.49 0.52,0.88 0.98,1.02 1.12,0.38 1.88,-0.82 2.03,-1.8l0 0z"/>
 </g>
</svg>
